<svg id="Layer_1" data-name="Layer 1" xmlns="http://www.w3.org/2000/svg" viewBox="0 0 768 768"><title>exit-poll</title><rect width="768" height="768" style="fill:#1a535c"/><rect y="689" width="768" height="79" style="fill:#4ecdc4"/><path d="M658,727.15a4.26,4.26,0,0,0,.35-5.23,4.11,4.11,0,0,0-2.91-1.79c-.42-.07-.6-.17-.58-.64,0-1.06,0-2.12,0-3.18,0-.33-.06-.46-.43-.46-1,0-1,0-1-1.06v-1.86c0-.23,0-.37.32-.37,3.54.05,7.09-.09,10.62.08a6.39,6.39,0,0,1,1.78.35c2.57.9,3.09,2.69,2.81,5a3.22,3.22,0,0,1-2.23,2.73c0,.14.14.15.22.18a4.26,4.26,0,0,1,2.91,4.78c-.26,2.51-1.51,3.83-4,4.29a26.22,26.22,0,0,1-4.51.22c-.24,0-.32-.1-.39-.34A3.49,3.49,0,0,0,658,727.15Zm2.11-2.43v1.85c0,.17,0,.34.24.33a14.8,14.8,0,0,0,2.21-.06,2.22,2.22,0,0,0,0-4.24,14.19,14.19,0,0,0-2.26-.06c-.27,0-.21.2-.21.36v1.82Zm0-7v1.62c0,.21,0,.35.29.34a14.8,14.8,0,0,0,1.76-.07,1.19,1.19,0,0,0,1-.85,2.76,2.76,0,0,0,.07-1.68,1.46,1.46,0,0,0-1.41-1.16c-.46,0-.93,0-1.41,0-.28,0-.34.11-.33.36,0,.48,0,1,0,1.45Z" style="fill:#fff"/><path d="M660.1,737.27c0,.54,0,1,0,1.42,0,.21,0,.35.29.34a10.92,10.92,0,0,0,1.81-.08,1.18,1.18,0,0,0,.93-.74,2.73,2.73,0,0,0,.06-1.93,1.48,1.48,0,0,0-1.62-1c-.42,0-.55-.16-.46-.52a9.82,9.82,0,0,0,.19-2.48c0-.18,0-.38.25-.38a15.42,15.42,0,0,1,4.39.38,4.31,4.31,0,0,1,2.55,6.36,3.72,3.72,0,0,1-1.8,1.45.48.48,0,0,0,.26.16,4.27,4.27,0,0,1,2.88,4.8c-.27,2.51-1.53,3.82-4.07,4.25a15.33,15.33,0,0,1-2.71.22c-3,0-6.11,0-9.17,0-.39,0-.51-.11-.5-.5,0-.79,0-1.58,0-2.37,0-.31.07-.44.41-.44,1.05,0,1.05,0,1.05-1.09V745c-.18-.87.17-1.32,1-1.72a4,4,0,0,0,2-4.44,2.3,2.3,0,0,0-.13-.61c-.11-.21.18-.19.32-.2a2.65,2.65,0,0,0,1.56-.4C659.77,737.56,659.85,737.42,660.1,737.27Zm0,6.8c0,.62,0,1.24,0,1.86,0,.23.07.33.31.32.66,0,1.31,0,2,0a2,2,0,0,0,1.76-2.28,1.94,1.94,0,0,0-1.91-2c-.59,0-1.17,0-1.76,0-.3,0-.36.11-.35.38C660.11,742.87,660.1,743.48,660.1,744.07Z" style="fill:#fff"/><path d="M691.79,742a.56.56,0,0,0,0-.12c.09-1.5-.19-1.82-1.68-2a6.17,6.17,0,0,0-3.91.88c-.46.25-.61.15-.75-.3-.21-.71-.48-1.4-.74-2.08-.09-.2-.09-.33.13-.45a9.82,9.82,0,0,1,9-1,4.58,4.58,0,0,1,3.15,4.65c0,1.44,0,2.9,0,4.34,0,.35.06.49.45.48,1.06,0,1.06,0,1.06,1.06,0,.6,0,1.21,0,1.81,0,.24,0,.36-.32.36-1.62,0-3.23,0-4.84,0a.38.38,0,0,1-.39-.24c-.13-.27-.29-.53-.46-.84a4.2,4.2,0,0,1-2.88,1.52,5.47,5.47,0,0,1-4.11-1.13,4.21,4.21,0,0,1-.23-6.07,5.6,5.6,0,0,1,5.52-1.39A2.87,2.87,0,0,1,691.79,742Zm.05,3.47c0-.75-.53-1.19-1.45-1.19s-1.46.49-1.46,1.29a1.22,1.22,0,0,0,1.34,1.19A1.42,1.42,0,0,0,691.84,745.43Z" style="fill:#fff"/><path d="M723.33,744.52c-1.18,0-2.35,0-3.53,0-.35,0-.43.09-.33.43a2.41,2.41,0,0,0,2.65,1.62,5.21,5.21,0,0,0,3.13-1.06c.17-.13.27-.13.41,0,.58.68,1.15,1.36,1.75,2,.24.26.06.36-.11.5a8.69,8.69,0,0,1-4.71,1.87,8.08,8.08,0,0,1-4.72-.67A6.77,6.77,0,0,1,721,736.58a7,7,0,0,1,4.26,1.12,5.72,5.72,0,0,1,2.29,5.54c-.1,1.29-.15,1.28-1.46,1.28Zm-2-2.52h1.56c.17,0,.32,0,.33-.24a1.7,1.7,0,0,0-1-1.62,2,2,0,0,0-2.73,1.53c0,.26,0,.34.26.33Z" style="fill:#fff"/><path d="M679.14,744.52c-1.18,0-2.34,0-3.52,0-.37,0-.47.08-.35.45a2.38,2.38,0,0,0,2.56,1.6,5.14,5.14,0,0,0,3.19-1c.24-.19.34-.07.48.1.55.64,1.09,1.28,1.65,1.91.22.23.19.35,0,.54a8.61,8.61,0,0,1-4.49,1.86,8.16,8.16,0,0,1-5.23-.79,6.16,6.16,0,0,1-3.11-4.85,7.21,7.21,0,0,1,.53-4,6.25,6.25,0,0,1,5.85-3.64,7.79,7.79,0,0,1,3.17.46,5.46,5.46,0,0,1,3.53,5.1,7,7,0,0,1-.18,2,.41.41,0,0,1-.48.38C681.52,744.51,680.33,744.52,679.14,744.52Zm-2-2.52h1.56c.16,0,.33,0,.34-.23a1.67,1.67,0,0,0-.93-1.6,1.94,1.94,0,0,0-2.78,1.5c0,.26,0,.34.26.33Z" style="fill:#fff"/><path d="M679.13,725.17c-1.18,0-2.34,0-3.52,0-.38,0-.47.09-.35.46a2.4,2.4,0,0,0,2.57,1.6,5.2,5.2,0,0,0,3.19-1.05c.24-.19.34-.06.48.1.55.63,1.09,1.28,1.65,1.9.23.25.18.36,0,.55a8.67,8.67,0,0,1-4.49,1.85,8.23,8.23,0,0,1-5.23-.78,6.18,6.18,0,0,1-3.1-4.85,7.14,7.14,0,0,1,.54-4,6.27,6.27,0,0,1,5.86-3.65,8.37,8.37,0,0,1,2.5.25,5.52,5.52,0,0,1,4.22,5.37,7.1,7.1,0,0,1-.19,2,.42.42,0,0,1-.48.37C681.52,725.16,680.32,725.17,679.13,725.17Zm-2-2.52h1.56c.14,0,.3.05.33-.19a1.67,1.67,0,0,0-.94-1.63,1.93,1.93,0,0,0-2.77,1.51c0,.26,0,.32.27.32.51,0,1,0,1.55,0Z" style="fill:#fff"/><path d="M705.29,740.16a20.11,20.11,0,0,1,1.8,5.17,20.3,20.3,0,0,1,2-5.14l-.3,0c-1,0-1,0-1-1,0-.63,0-1.24,0-1.87,0-.26.08-.34.34-.34H714c.25,0,.37,0,.36.32,0,.88,0,1.74,0,2.62,0,.22-.08.33-.29.28-.92-.22-1.21.36-1.54,1.06-1.2,2.66-2.44,5.29-3.66,7.94a.58.58,0,0,1-.6.39c-1,0-2,0-3.07,0a.6.6,0,0,1-.65-.4c-1.39-2.81-2.8-5.61-4.18-8.42-.21-.45-.45-.67-.93-.58s-.6-.06-.57-.52c0-.76,0-1.51,0-2.27,0-.3,0-.44.4-.44,2.3,0,4.61,0,6.91,0,.31,0,.4.09.39.39,0,.79,0,1.58,0,2.37,0,.37-.09.52-.47.47Z" style="fill:#fff"/><path d="M700.82,727v3c0,.22-.12.29-.31.33a9.72,9.72,0,0,1-4.42.18,2.82,2.82,0,0,1-2.14-2.62,37.78,37.78,0,0,1-.18-4.88c0-.57,0-1.13,0-1.71,0-.28-.08-.36-.37-.37-1,0-1,0-1-1,0-.63,0-1.28,0-1.91,0-.27,0-.39.36-.4,1,0,1,0,1-1,0-1.29,0-1.29,1.26-1.7l3-1c.31-.1.41,0,.4.3,0,1,0,1.91,0,2.87,0,.46.14.57.56.54s1,0,1.51,0c.24,0,.33.06.33.32,0,.88,0,1.78,0,2.67,0,.27-.1.35-.36.34-.52,0-1,0-1.56,0-.37,0-.49.09-.48.47,0,1.36,0,2.72,0,4.08a5.2,5.2,0,0,0,0,1.25.73.73,0,0,0,1,.65C699.88,727.25,700.32,727.11,700.82,727Z" style="fill:#fff"/><path d="M734.12,738.52a3.44,3.44,0,0,1,2.18-2l.14,0c1.48-.38,1.57-.32,1.57,1.17,0,.94,0,1.89,0,2.83,0,.33-.11.43-.43.41a4.35,4.35,0,0,0-1.24.16,2.1,2.1,0,0,0-1.85,2.18c-.06.9,0,1.81,0,2.72,0,.27.14.28.34.29.93,0,.93,0,.93,1,0,.65,0,1.31,0,2,0,.26,0,.39-.36.39h-6.45c-.3,0-.37-.13-.36-.39q0-1.26,0-2.52c0-.31.09-.44.43-.43.68,0,.69,0,.69-.7,0-1.59,0-3.19,0-4.78,0-.41-.12-.56-.51-.5s-.61-.1-.59-.56a22.44,22.44,0,0,0,0-2.32c0-.31.07-.44.42-.43,1.34,0,2.69,0,4,0a.44.44,0,0,1,.48.32A12.6,12.6,0,0,0,734.12,738.52Z" style="fill:#fff"/><path d="M692.86,710.22a5.4,5.4,0,0,1-5,5.58,5.31,5.31,0,0,1-3.05-9.86c.19-.12.36-.21.3-.5s.12-.34.3-.41a.35.35,0,0,1,.44.14c.14.25.33.18.52.13a5.16,5.16,0,0,1,2.28,0c.22.05.42.12.57-.14a.33.33,0,0,1,.45-.11c.18.08.31.21.28.38s.13.4.33.53A5.16,5.16,0,0,1,692.86,710.22Zm-6.07.54c.18.27.32.5.46.72a1.12,1.12,0,0,1-.29,1.57l-.1.06c-.09,0-.21.13-.1.21s.16.63.81.61.51-.4.65-.62-.22-.18-.32-.3-.22-.22-.24-.37a1.6,1.6,0,0,1,.17-1.21c.15-.19.27-.41.44-.67Zm3.22-1.13c0-.28-.18-.47-.48-.48a.43.43,0,0,0-.48.46.44.44,0,0,0,.38.48h.08c.3,0,.44-.17.5-.46Zm-4.47-.48c-.28,0-.47.17-.47.47a.44.44,0,0,0,.39.48h.08a.43.43,0,0,0,.47-.39h0v-.08C686,709.33,685.82,709.19,685.54,709.15Z" style="fill:#fff"/><path d="M690.23,722.24c0,1.39,0,2.79,0,4.18,0,.39.12.51.48.46.11,0,.24,0,.35,0,.33,0,.4.1.4.41,0,.85,0,1.71,0,2.57,0,.29-.09.36-.38.36h-6.34c-.3,0-.37-.1-.37-.38,0-.84,0-1.69,0-2.52,0-.37.12-.5.47-.44s.61-.12.6-.59c0-1.63,0-3.26,0-4.89,0-.38-.09-.56-.49-.49s-.6-.07-.57-.54c0-.78,0-1.58,0-2.36,0-.29,0-.43.38-.42,1.71,0,3.42,0,5.13,0,.3,0,.37.1.37.38C690.22,719.39,690.23,720.82,690.23,722.24Z" style="fill:#fff"/><path d="M39.62,734.05a5.55,5.55,0,0,1-2.31-.47,5.62,5.62,0,0,1-1.83-1.27l.9-1a4.8,4.8,0,0,0,1.48,1.07,4.11,4.11,0,0,0,1.78.41,2.79,2.79,0,0,0,1.81-.53,1.71,1.71,0,0,0,.65-1.4,1.75,1.75,0,0,0-.15-.76,1.68,1.68,0,0,0-.41-.54,3.26,3.26,0,0,0-.63-.41l-.77-.38L38.45,728a7.67,7.67,0,0,1-.85-.44,3.24,3.24,0,0,1-.77-.61,2.79,2.79,0,0,1-.56-.85,2.9,2.9,0,0,1-.22-1.14,2.93,2.93,0,0,1,.28-1.25,3.27,3.27,0,0,1,.78-1,3.5,3.5,0,0,1,1.17-.65,4.38,4.38,0,0,1,1.48-.24,4.71,4.71,0,0,1,2,.41,5,5,0,0,1,1.53,1l-.81,1a4.15,4.15,0,0,0-1.19-.82,3.74,3.74,0,0,0-1.49-.29,2.52,2.52,0,0,0-1.59.46,1.48,1.48,0,0,0-.6,1.26,1.36,1.36,0,0,0,.17.73,1.65,1.65,0,0,0,.46.53,3.33,3.33,0,0,0,.63.39,7.45,7.45,0,0,0,.7.32l1.67.72a7.21,7.21,0,0,1,1,.49,3.49,3.49,0,0,1,.77.65,2.65,2.65,0,0,1,.51.86,3.12,3.12,0,0,1,.19,1.15,3.05,3.05,0,0,1-.28,1.31,3,3,0,0,1-.8,1.07,3.71,3.71,0,0,1-1.26.72A4.84,4.84,0,0,1,39.62,734.05Z" style="fill:#fff"/><path d="M49.21,734.05a4,4,0,0,1-1.54-.3,3.89,3.89,0,0,1-1.28-.89,4.18,4.18,0,0,1-.89-1.44,5.73,5.73,0,0,1,0-3.89,4.22,4.22,0,0,1,.89-1.45,3.64,3.64,0,0,1,1.28-.9,4,4,0,0,1,3.08,0,3.59,3.59,0,0,1,1.29.9,4.38,4.38,0,0,1,.89,1.45,5.9,5.9,0,0,1,0,3.89,4.34,4.34,0,0,1-.89,1.44,3.83,3.83,0,0,1-1.29.89A4,4,0,0,1,49.21,734.05Zm0-1.22a2.23,2.23,0,0,0,1-.24,2.4,2.4,0,0,0,.8-.69,3.21,3.21,0,0,0,.51-1,4.84,4.84,0,0,0,.18-1.37,5,5,0,0,0-.18-1.38A3.43,3.43,0,0,0,51,727a2.29,2.29,0,0,0-.8-.69,2.23,2.23,0,0,0-1-.24,2.19,2.19,0,0,0-1,.24,2.32,2.32,0,0,0-.81.69,3.43,3.43,0,0,0-.51,1.07,5,5,0,0,0-.18,1.38,4.84,4.84,0,0,0,.18,1.37,3.21,3.21,0,0,0,.51,1,2.43,2.43,0,0,0,.81.69A2.19,2.19,0,0,0,49.21,732.83Z" style="fill:#fff"/><path d="M58.12,734.05a2.38,2.38,0,0,1-2-.86,4.26,4.26,0,0,1-.64-2.56v-5.54h1.49v5.34a3.2,3.2,0,0,0,.39,1.8,1.45,1.45,0,0,0,1.25.55,2.08,2.08,0,0,0,1.21-.36,5.36,5.36,0,0,0,1.15-1.12v-6.21h1.48v8.75H61.18l-.12-1.37H61a5.71,5.71,0,0,1-1.29,1.15A2.87,2.87,0,0,1,58.12,734.05Z" style="fill:#fff"/><path d="M65.36,733.84v-8.75h1.22l.13,1.58h.05a4,4,0,0,1,1.09-1.31,2.33,2.33,0,0,1,2.33-.31l-.29,1.3a2.33,2.33,0,0,0-.39-.11,2.81,2.81,0,0,0-.45,0,2,2,0,0,0-1.16.45,3.52,3.52,0,0,0-1.06,1.56v5.62Z" style="fill:#fff"/><path d="M74.88,734.05a4.32,4.32,0,0,1-1.62-.3,3.81,3.81,0,0,1-1.31-.89,4.28,4.28,0,0,1-.86-1.44,5.6,5.6,0,0,1-.31-1.94,5.18,5.18,0,0,1,.34-2,4.29,4.29,0,0,1,.92-1.45,3.69,3.69,0,0,1,1.34-.9,4.16,4.16,0,0,1,1.61-.31,3.16,3.16,0,0,1,1.47.31,4.62,4.62,0,0,1,1.08.72l-.75,1a3.86,3.86,0,0,0-.8-.56,2.14,2.14,0,0,0-.95-.21,2.56,2.56,0,0,0-1.1.24,2.48,2.48,0,0,0-.86.69,3.52,3.52,0,0,0-.57,1.07,4.34,4.34,0,0,0-.2,1.38,4.49,4.49,0,0,0,.19,1.37,3.48,3.48,0,0,0,.55,1,2.53,2.53,0,0,0,3.08.67,5,5,0,0,0,.93-.62l.65,1a4.78,4.78,0,0,1-1.32.82A4.06,4.06,0,0,1,74.88,734.05Z" style="fill:#fff"/><path d="M82.8,734.05a4.29,4.29,0,0,1-1.65-.31,3.91,3.91,0,0,1-1.33-.9,4.23,4.23,0,0,1-.89-1.43,5.89,5.89,0,0,1,0-3.86,4.36,4.36,0,0,1,.88-1.45,3.79,3.79,0,0,1,1.25-.91,3.56,3.56,0,0,1,1.46-.32,3.65,3.65,0,0,1,1.48.29,2.84,2.84,0,0,1,1.1.83,3.74,3.74,0,0,1,.68,1.3A5.85,5.85,0,0,1,86,729c0,.15,0,.31,0,.46a2,2,0,0,1,0,.38H80.06a3.45,3.45,0,0,0,.88,2.23,2.71,2.71,0,0,0,2,.82,3.57,3.57,0,0,0,1.16-.19,6,6,0,0,0,1-.5l.52,1a7.26,7.26,0,0,1-1.28.63A4.44,4.44,0,0,1,82.8,734.05Zm-2.75-5.29h4.68a3.1,3.1,0,0,0-.57-2,1.93,1.93,0,0,0-1.59-.7,2.3,2.3,0,0,0-.9.18,2.43,2.43,0,0,0-.76.53,2.93,2.93,0,0,0-.57.86A3.66,3.66,0,0,0,80.05,728.76Z" style="fill:#fff"/><path d="M89,727.55a1,1,0,0,1-.77-.31,1.09,1.09,0,0,1-.31-.8,1.13,1.13,0,0,1,.31-.84,1,1,0,0,1,.77-.31,1,1,0,0,1,.74.31,1.14,1.14,0,0,1,.32.84,1.09,1.09,0,0,1-.32.8A1,1,0,0,1,89,727.55Zm0,6.5a1,1,0,0,1-.77-.31,1.09,1.09,0,0,1-.31-.8,1.13,1.13,0,0,1,.31-.84,1,1,0,0,1,.77-.31,1,1,0,0,1,.74.31,1.14,1.14,0,0,1,.32.84,1.09,1.09,0,0,1-.32.8A1,1,0,0,1,89,734.05Z" style="fill:#fff"/><path d="M96.26,737.53V725.09h1.23l.12,1h.06a6.42,6.42,0,0,1,1.3-.87,3.27,3.27,0,0,1,1.49-.36,3.37,3.37,0,0,1,1.49.32,2.93,2.93,0,0,1,1.08.9,4.22,4.22,0,0,1,.66,1.4,7,7,0,0,1,.22,1.85,6.16,6.16,0,0,1-.3,2,4.71,4.71,0,0,1-.83,1.48,3.48,3.48,0,0,1-1.21.93,3.36,3.36,0,0,1-1.44.31,3,3,0,0,1-1.21-.27A5.94,5.94,0,0,1,97.7,733l0,1.54v2.95Zm3.62-4.72a2.14,2.14,0,0,0,1-.24,2.26,2.26,0,0,0,.79-.69,3.16,3.16,0,0,0,.52-1.09,5,5,0,0,0,.19-1.45,6.74,6.74,0,0,0-.12-1.32,3,3,0,0,0-.41-1,1.76,1.76,0,0,0-.72-.66,2.14,2.14,0,0,0-1-.23,2.42,2.42,0,0,0-1.13.3,6.75,6.75,0,0,0-1.21.88v4.59a3.75,3.75,0,0,0,1.15.71A2.84,2.84,0,0,0,99.88,732.81Z" style="fill:#fff"/><path d="M109.66,734.05a4,4,0,0,1-1.54-.3,3.83,3.83,0,0,1-1.29-.89,4.34,4.34,0,0,1-.89-1.44,5.9,5.9,0,0,1,0-3.89,4.38,4.38,0,0,1,.89-1.45,3.59,3.59,0,0,1,1.29-.9,3.82,3.82,0,0,1,1.54-.31,3.77,3.77,0,0,1,1.53.31,3.59,3.59,0,0,1,1.29.9,4.38,4.38,0,0,1,.89,1.45,5.73,5.73,0,0,1,0,3.89,4.34,4.34,0,0,1-.89,1.44,3.83,3.83,0,0,1-1.29.89A3.94,3.94,0,0,1,109.66,734.05Zm0-1.22a2.19,2.19,0,0,0,1-.24,2.4,2.4,0,0,0,.8-.69,3.22,3.22,0,0,0,.52-1,4.84,4.84,0,0,0,.18-1.37,5,5,0,0,0-.18-1.38,3.44,3.44,0,0,0-.52-1.07,2.29,2.29,0,0,0-.8-.69,2.31,2.31,0,0,0-2.05,0,2.29,2.29,0,0,0-.8.69,3.43,3.43,0,0,0-.51,1.07,5,5,0,0,0-.18,1.38,4.84,4.84,0,0,0,.18,1.37,3.21,3.21,0,0,0,.51,1,2.4,2.4,0,0,0,.8.69A2.2,2.2,0,0,0,109.66,732.83Z" style="fill:#fff"/><path d="M117.58,734.05a1.39,1.39,0,0,1-1.21-.5,2.55,2.55,0,0,1-.36-1.48V721h1.48v11.16a.78.78,0,0,0,.12.5.36.36,0,0,0,.29.15H118a.54.54,0,0,0,.19,0l.2,1.12a1.36,1.36,0,0,1-.34.11A3.43,3.43,0,0,1,117.58,734.05Z" style="fill:#fff"/><path d="M122.17,734.05a1.39,1.39,0,0,1-1.21-.5,2.55,2.55,0,0,1-.36-1.48V721h1.48v11.16a.78.78,0,0,0,.12.5.36.36,0,0,0,.29.15h.13a.54.54,0,0,0,.19,0l.2,1.12a1.36,1.36,0,0,1-.34.11A3.43,3.43,0,0,1,122.17,734.05Z" style="fill:#fff"/><path d="M132.66,734.05a3.2,3.2,0,0,1-1.27-.29,4.64,4.64,0,0,1-1.23-.82h-.06l-.12.9h-1.19V721h1.48v3.49l0,1.59a6.26,6.26,0,0,1,1.29-.88,3.25,3.25,0,0,1,1.44-.35,3.38,3.38,0,0,1,1.5.32,3,3,0,0,1,1.09.9,4.22,4.22,0,0,1,.66,1.4,6.94,6.94,0,0,1,.23,1.83,6,6,0,0,1-.31,2,4.64,4.64,0,0,1-.82,1.49,3.58,3.58,0,0,1-1.21.93A3.42,3.42,0,0,1,132.66,734.05Zm-.25-1.24a2.14,2.14,0,0,0,1-.24,2.35,2.35,0,0,0,.79-.69,3.35,3.35,0,0,0,.52-1.09,5,5,0,0,0,.19-1.45,6,6,0,0,0-.13-1.32,3,3,0,0,0-.4-1,1.89,1.89,0,0,0-.72-.66,2.21,2.21,0,0,0-1.06-.23,3.62,3.62,0,0,0-2.33,1.18v4.59a3.39,3.39,0,0,0,1.14.71A2.94,2.94,0,0,0,132.41,732.81Z" style="fill:#fff"/><path d="M138.81,737.6a3,3,0,0,1-.55-.05,2.15,2.15,0,0,1-.47-.13l.29-1.17.32.08a1.4,1.4,0,0,0,.34,0,1.58,1.58,0,0,0,1.24-.54,3.83,3.83,0,0,0,.74-1.34l.2-.65-3.51-8.76h1.53l1.78,4.84c.13.39.28.79.43,1.22s.29.84.42,1.25h.07c.13-.4.26-.81.38-1.24s.24-.84.36-1.23l1.56-4.84h1.44l-3.29,9.47a11.1,11.1,0,0,1-.52,1.2,3.86,3.86,0,0,1-.69,1,3,3,0,0,1-.9.64A2.81,2.81,0,0,1,138.81,737.6Z" style="fill:#fff"/><path d="M153.43,734.05a2.93,2.93,0,0,1-1.18-.21,2,2,0,0,1-.77-.6,2.4,2.4,0,0,1-.43-.91,5.58,5.58,0,0,1-.12-1.19v-4.85h-1.3v-1.11l1.37-.09.18-2.45h1.24v2.45h2.36v1.2h-2.36v4.87a2.22,2.22,0,0,0,.3,1.25,1.19,1.19,0,0,0,1.05.44,2.4,2.4,0,0,0,.51-.07,3.79,3.79,0,0,0,.48-.17l.29,1.12a7.27,7.27,0,0,1-.78.22A3.44,3.44,0,0,1,153.43,734.05Z" style="fill:#fff"/><path d="M156.76,733.84V721h1.48v3.49l-.06,1.8a8.27,8.27,0,0,1,1.32-1,2.9,2.9,0,0,1,1.6-.43,2.33,2.33,0,0,1,2,.87,4.23,4.23,0,0,1,.64,2.55v5.55h-1.47v-5.35a3.16,3.16,0,0,0-.4-1.79,1.43,1.43,0,0,0-1.26-.55,2.14,2.14,0,0,0-1.21.34,8.44,8.44,0,0,0-1.18,1v6.34Z" style="fill:#fff"/><path d="M170.1,734.05a4.29,4.29,0,0,1-1.65-.31,3.91,3.91,0,0,1-1.33-.9,4.08,4.08,0,0,1-.89-1.43,5.73,5.73,0,0,1,0-3.86,4.36,4.36,0,0,1,.88-1.45,3.79,3.79,0,0,1,1.25-.91,3.52,3.52,0,0,1,1.46-.32,3.65,3.65,0,0,1,1.48.29,2.84,2.84,0,0,1,1.1.83,3.74,3.74,0,0,1,.68,1.3,5.85,5.85,0,0,1,.23,1.69c0,.15,0,.31,0,.46a2,2,0,0,1,0,.38h-5.91a3.4,3.4,0,0,0,.88,2.23,2.71,2.71,0,0,0,2,.82,3.57,3.57,0,0,0,1.16-.19,6,6,0,0,0,1-.5l.52,1a7.62,7.62,0,0,1-1.28.63A4.44,4.44,0,0,1,170.1,734.05Zm-2.76-5.29H172a3.1,3.1,0,0,0-.56-2,1.93,1.93,0,0,0-1.6-.7,2.28,2.28,0,0,0-.89.18,2.43,2.43,0,0,0-.76.53,2.93,2.93,0,0,0-.57.86A4,4,0,0,0,167.34,728.76Z" style="fill:#fff"/><path d="M179.22,733.84V722h3.51a7.7,7.7,0,0,1,1.65.16,3.81,3.81,0,0,1,1.28.51,2.37,2.37,0,0,1,.83.89,2.68,2.68,0,0,1,.29,1.32,2.88,2.88,0,0,1-.44,1.59,2.23,2.23,0,0,1-1.28,1v.07a3.12,3.12,0,0,1,1.74.91,2.64,2.64,0,0,1,.67,1.92,3.26,3.26,0,0,1-.33,1.51,2.88,2.88,0,0,1-.91,1.08,4.09,4.09,0,0,1-1.43.65,7.3,7.3,0,0,1-1.81.22Zm1.5-6.79h1.74a3.55,3.55,0,0,0,2.18-.52,1.7,1.7,0,0,0,.67-1.42,1.58,1.58,0,0,0-.69-1.46,4,4,0,0,0-2.08-.43h-1.82Zm0,5.6h2.05a4.25,4.25,0,0,0,2.38-.57,2,2,0,0,0,.84-1.75,1.73,1.73,0,0,0-.83-1.61,4.49,4.49,0,0,0-2.39-.52h-2.05Z" style="fill:#fff"/><path d="M193.21,734.05a4.29,4.29,0,0,1-1.65-.31,3.91,3.91,0,0,1-1.33-.9,4.23,4.23,0,0,1-.89-1.43,5.89,5.89,0,0,1,0-3.86,4.53,4.53,0,0,1,.88-1.45,3.79,3.79,0,0,1,1.25-.91,3.56,3.56,0,0,1,1.46-.32,3.74,3.74,0,0,1,1.49.29,2.88,2.88,0,0,1,1.09.83,3.74,3.74,0,0,1,.68,1.3,5.85,5.85,0,0,1,.23,1.69c0,.15,0,.31,0,.46a2,2,0,0,1,0,.38h-5.91a3.45,3.45,0,0,0,.88,2.23,2.71,2.71,0,0,0,2,.82,3.57,3.57,0,0,0,1.16-.19,5.67,5.67,0,0,0,1-.5l.52,1a7.26,7.26,0,0,1-1.28.63A4.44,4.44,0,0,1,193.21,734.05Zm-2.75-5.29h4.68a3.1,3.1,0,0,0-.57-2A1.93,1.93,0,0,0,193,726a2.21,2.21,0,0,0-.89.18,2.36,2.36,0,0,0-.77.53,2.93,2.93,0,0,0-.57.86A3.66,3.66,0,0,0,190.46,728.76Z" style="fill:#fff"/><path d="M199.35,723.29a1,1,0,0,1-.73-.27.94.94,0,0,1,0-1.38,1.15,1.15,0,0,1,1.46,0,1,1,0,0,1,0,1.38A1,1,0,0,1,199.35,723.29Zm-.76,10.55v-8.75h1.48v8.75Z" style="fill:#fff"/><path d="M205.77,734.05a3,3,0,0,1-1.18-.21,2.09,2.09,0,0,1-.77-.6,2.25,2.25,0,0,1-.42-.91,5,5,0,0,1-.13-1.19v-4.85H202v-1.11l1.36-.09.18-2.45h1.25v2.45h2.35v1.2h-2.35v4.87a2.22,2.22,0,0,0,.29,1.25,1.19,1.19,0,0,0,1.06.44,2.4,2.4,0,0,0,.5-.07,4.65,4.65,0,0,0,.49-.17l.28,1.12a7.27,7.27,0,0,1-.78.22A3.44,3.44,0,0,1,205.77,734.05Z" style="fill:#fff"/><path d="M212.85,733.84V722h3.51a7.54,7.54,0,0,1,1.64.16,3.81,3.81,0,0,1,1.28.51,2.29,2.29,0,0,1,.83.89,2.68,2.68,0,0,1,.3,1.32,3,3,0,0,1-.44,1.59,2.28,2.28,0,0,1-1.29,1v.07a3.18,3.18,0,0,1,1.75.91,2.68,2.68,0,0,1,.66,1.92,3.39,3.39,0,0,1-.32,1.51,2.91,2.91,0,0,1-.92,1.08,4.12,4.12,0,0,1-1.42.65,7.38,7.38,0,0,1-1.82.22Zm1.49-6.79h1.75a3.57,3.57,0,0,0,2.18-.52,1.71,1.71,0,0,0,.66-1.42,1.58,1.58,0,0,0-.69-1.46,4,4,0,0,0-2.08-.43h-1.82Zm0,5.6h2a4.23,4.23,0,0,0,2.38-.57,2,2,0,0,0,.85-1.75,1.75,1.75,0,0,0-.83-1.61,4.5,4.5,0,0,0-2.4-.52h-2Z" style="fill:#fff"/><path d="M226.83,734.05a4.27,4.27,0,0,1-1.64-.31,4,4,0,0,1-1.34-.9,4.39,4.39,0,0,1-.89-1.43,5.54,5.54,0,0,1-.32-1.93,5.31,5.31,0,0,1,.33-1.93,4.53,4.53,0,0,1,.88-1.45,3.83,3.83,0,0,1,1.26-.91,3.48,3.48,0,0,1,1.45-.32,3.7,3.7,0,0,1,1.49.29,2.92,2.92,0,0,1,1.1.83,3.72,3.72,0,0,1,.67,1.3,5.52,5.52,0,0,1,.24,1.69c0,.15,0,.31,0,.46a2,2,0,0,1-.05.38h-5.9a3.44,3.44,0,0,0,.87,2.23,2.71,2.71,0,0,0,2,.82,3.57,3.57,0,0,0,1.16-.19,5.36,5.36,0,0,0,1-.5l.52,1a7.51,7.51,0,0,1-1.27.63A4.49,4.49,0,0,1,226.83,734.05Zm-2.75-5.29h4.68a3.1,3.1,0,0,0-.57-2,1.93,1.93,0,0,0-1.59-.7,2.25,2.25,0,0,0-.89.18,2.47,2.47,0,0,0-.77.53,3.12,3.12,0,0,0-.56.86A4,4,0,0,0,224.08,728.76Z" style="fill:#fff"/><path d="M234,734.05a2.67,2.67,0,0,1-1.83-.64,2.37,2.37,0,0,1-.73-1.84,2.44,2.44,0,0,1,1.28-2.21,10.69,10.69,0,0,1,4.09-1.07,4.45,4.45,0,0,0-.08-.81,2.28,2.28,0,0,0-.28-.7,1.46,1.46,0,0,0-.55-.49,1.81,1.81,0,0,0-.89-.19,3.53,3.53,0,0,0-1.42.28,7.39,7.39,0,0,0-1.19.65l-.58-1a9.45,9.45,0,0,1,1.5-.77,5,5,0,0,1,1.94-.37,2.69,2.69,0,0,1,2.32,1,4.35,4.35,0,0,1,.72,2.62v5.37h-1.22l-.13-1.05h-.05a7,7,0,0,1-1.35.89A3.31,3.31,0,0,1,234,734.05Zm.43-1.18a2.47,2.47,0,0,0,1.19-.3,6.24,6.24,0,0,0,1.19-.87v-2.44a14.31,14.31,0,0,0-1.85.35,4.28,4.28,0,0,0-1.2.47,1.69,1.69,0,0,0-.67.62,1.43,1.43,0,0,0-.21.76,1.24,1.24,0,0,0,.45,1.08A1.82,1.82,0,0,0,234.41,732.87Z" style="fill:#fff"/><path d="M242.93,733.84l-3.15-8.75h1.53l1.65,5c.13.43.27.86.41,1.29s.27.86.4,1.28h.07c.14-.42.27-.84.4-1.28s.26-.86.4-1.29l1.65-5h1.46l-3.1,8.75Z" style="fill:#fff"/><path d="M252.92,734.05a4.29,4.29,0,0,1-1.65-.31,3.82,3.82,0,0,1-1.33-.9,4.08,4.08,0,0,1-.89-1.43,5.81,5.81,0,0,1,0-3.86,4.55,4.55,0,0,1,.89-1.45,3.69,3.69,0,0,1,1.25-.91,3.52,3.52,0,0,1,1.46-.32,3.69,3.69,0,0,1,1.48.29,2.92,2.92,0,0,1,1.1.83,3.72,3.72,0,0,1,.67,1.3,5.52,5.52,0,0,1,.24,1.69c0,.15,0,.31,0,.46a2,2,0,0,1-.05.38h-5.9a3.44,3.44,0,0,0,.87,2.23,2.73,2.73,0,0,0,2,.82,3.62,3.62,0,0,0,1.16-.19,5.58,5.58,0,0,0,1-.5l.53,1a7.62,7.62,0,0,1-1.28.63A4.44,4.44,0,0,1,252.92,734.05Zm-2.76-5.29h4.68a3.1,3.1,0,0,0-.57-2,1.9,1.9,0,0,0-1.59-.7,2.25,2.25,0,0,0-.89.18,2.32,2.32,0,0,0-.76.53,2.93,2.93,0,0,0-.57.86A4,4,0,0,0,250.16,728.76Z" style="fill:#fff"/><path d="M258.3,733.84v-8.75h1.22l.13,1.58h.05a4,4,0,0,1,1.09-1.31,2.33,2.33,0,0,1,2.33-.31l-.29,1.3a2.33,2.33,0,0,0-.39-.11,2.81,2.81,0,0,0-.45,0,2,2,0,0,0-1.16.45,3.52,3.52,0,0,0-1.06,1.56v5.62Z" style="fill:#fff"/><path d="M263.25,736.9l-.36-.87a3,3,0,0,0,1.2-.91,2,2,0,0,0,.42-1.28h-.18a1.11,1.11,0,0,1-.75-.26.91.91,0,0,1-.31-.76,1,1,0,0,1,.32-.77,1.17,1.17,0,0,1,.77-.27,1,1,0,0,1,.91.46,2.21,2.21,0,0,1,.33,1.28,3.33,3.33,0,0,1-.62,2A4.17,4.17,0,0,1,263.25,736.9Z" style="fill:#fff"/><path d="M270.84,733.84V733q1.31-1.31,2.31-2.34a25.54,25.54,0,0,0,1.69-1.94,9.71,9.71,0,0,0,1-1.64,3.33,3.33,0,0,0,.36-1.45,2.4,2.4,0,0,0-.54-1.62,2,2,0,0,0-1.64-.63,2.37,2.37,0,0,0-1.33.41,5.39,5.39,0,0,0-1.11,1l-.85-.85a6.89,6.89,0,0,1,1.53-1.27,3.86,3.86,0,0,1,1.95-.47,3.44,3.44,0,0,1,2.52.92,3.35,3.35,0,0,1,.91,2.46,4,4,0,0,1-.35,1.63,9,9,0,0,1-1,1.69,19.79,19.79,0,0,1-1.48,1.82c-.57.63-1.19,1.3-1.88,2l1-.08.95,0h3.33v1.28Z" style="fill:#fff"/><path d="M280.49,733.84v-1.23h2.63v-8.46H281v-.95a9.2,9.2,0,0,0,1.38-.35,5.68,5.68,0,0,0,1-.5h1.13v10.26H287v1.23Z" style="fill:#fff"/><path d="M290.26,727.55a1,1,0,0,1-.76-.31,1.09,1.09,0,0,1-.32-.8,1.14,1.14,0,0,1,.32-.84,1.07,1.07,0,0,1,1.51,0,1.14,1.14,0,0,1,.32.84,1.09,1.09,0,0,1-.32.8A1,1,0,0,1,290.26,727.55Zm0,6.5a1,1,0,0,1-.76-.31,1.09,1.09,0,0,1-.32-.8,1.14,1.14,0,0,1,.32-.84,1.07,1.07,0,0,1,1.51,0,1.14,1.14,0,0,1,.32.84,1.09,1.09,0,0,1-.32.8A1,1,0,0,1,290.26,734.05Z" style="fill:#fff"/><path d="M298,733.84v-3.17H292.8v-1l4.92-7.35h1.65v7.13h1.57v1.19h-1.57v3.17Zm-3.6-4.36H298v-3.33q0-.46,0-1.11c0-.42,0-.79.06-1.1H298l-.45.81-.49.81Z" style="fill:#fff"/><path d="M305.65,734.05a5.45,5.45,0,0,1-1.25-.13,5.54,5.54,0,0,1-1-.35,4.81,4.81,0,0,1-.83-.5,4.72,4.72,0,0,1-.66-.58l.72-1a5.3,5.3,0,0,0,1.2.92,3.32,3.32,0,0,0,1.7.4,2.5,2.5,0,0,0,1.78-.72,2.48,2.48,0,0,0,.54-.83,2.85,2.85,0,0,0,.2-1.08,2.47,2.47,0,0,0-.67-1.85,2.37,2.37,0,0,0-1.78-.67,2.57,2.57,0,0,0-1,.18,6.62,6.62,0,0,0-.95.52l-.79-.5.38-5.53H309v1.28H304.5l-.3,3.4a5.69,5.69,0,0,1,.82-.34,3.39,3.39,0,0,1,.94-.13,4.55,4.55,0,0,1,1.39.22,3,3,0,0,1,1.13.66,3.11,3.11,0,0,1,.77,1.11,4.36,4.36,0,0,1,.27,1.62,3.92,3.92,0,0,1-.32,1.65,3.73,3.73,0,0,1-.86,1.22,3.65,3.65,0,0,1-1.24.75A3.92,3.92,0,0,1,305.65,734.05Z" style="fill:#fff"/><path d="M317.17,733.84a27.69,27.69,0,0,1,.29-3,18.21,18.21,0,0,1,.61-2.57,13,13,0,0,1,1-2.35,21.64,21.64,0,0,1,1.44-2.32h-5.72v-1.28h7.4v.92a16.87,16.87,0,0,0-1.67,2.48,13.73,13.73,0,0,0-1,2.43,14.19,14.19,0,0,0-.55,2.61c-.12.91-.2,1.93-.25,3.05Z" style="fill:#fff"/><path d="M327.16,734.05a3,3,0,0,1-1.18-.21,2.09,2.09,0,0,1-.77-.6,2.25,2.25,0,0,1-.42-.91,5,5,0,0,1-.13-1.19v-4.85h-1.29v-1.11l1.36-.09.18-2.45h1.25v2.45h2.35v1.2h-2.35v4.87a2.22,2.22,0,0,0,.29,1.25,1.19,1.19,0,0,0,1.06.44,2.4,2.4,0,0,0,.5-.07,4.65,4.65,0,0,0,.49-.17l.28,1.12a7.27,7.27,0,0,1-.78.22A3.44,3.44,0,0,1,327.16,734.05Z" style="fill:#fff"/><path d="M330.49,733.84V721H332v3.49l-.05,1.8a8.2,8.2,0,0,1,1.31-1,2.93,2.93,0,0,1,1.6-.43,2.35,2.35,0,0,1,2,.87,4.3,4.3,0,0,1,.64,2.55v5.55H336v-5.35a3.08,3.08,0,0,0-.4-1.79,1.43,1.43,0,0,0-1.26-.55,2.13,2.13,0,0,0-1.2.34,7.91,7.91,0,0,0-1.19,1v6.34Z" style="fill:#fff"/><path d="M344,733.84V722h1.8l2.27,6.3.42,1.23.42,1.23H349c.14-.4.27-.81.4-1.23s.26-.82.41-1.23l2.23-6.3h1.82v11.81h-1.41v-6.5c0-.53,0-1.11.07-1.75s.09-1.21.13-1.74h-.07l-.94,2.68-2.23,6.12h-1l-2.23-6.12-.94-2.68h-.07c0,.53.07,1.11.12,1.74s.06,1.22.06,1.75v6.5Z" style="fill:#fff"/><path d="M359,734.05a2.65,2.65,0,0,1-1.83-.64,2.34,2.34,0,0,1-.73-1.84,2.44,2.44,0,0,1,1.28-2.21,10.63,10.63,0,0,1,4.08-1.07,3.71,3.71,0,0,0-.08-.81,2,2,0,0,0-.27-.7,1.53,1.53,0,0,0-.55-.49,1.83,1.83,0,0,0-.89-.19,3.61,3.61,0,0,0-1.43.28,7.84,7.84,0,0,0-1.19.65l-.57-1a9.32,9.32,0,0,1,1.49-.77,5.13,5.13,0,0,1,1.95-.37,2.69,2.69,0,0,1,2.32,1,4.35,4.35,0,0,1,.72,2.62v5.37h-1.22l-.13-1.05h-.06a7.25,7.25,0,0,1-1.34.89A3.34,3.34,0,0,1,359,734.05Zm.43-1.18a2.47,2.47,0,0,0,1.19-.3,5.91,5.91,0,0,0,1.18-.87v-2.44a14.12,14.12,0,0,0-1.84.35,4.49,4.49,0,0,0-1.21.47,1.73,1.73,0,0,0-.66.62,1.43,1.43,0,0,0-.21.76,1.24,1.24,0,0,0,.45,1.08A1.82,1.82,0,0,0,359.42,732.87Z" style="fill:#fff"/><path d="M366,733.84v-8.75h1.23l.12,1.58h.06a4,4,0,0,1,1.09-1.31,2.27,2.27,0,0,1,1.39-.49,2.35,2.35,0,0,1,.94.18l-.29,1.3a2.43,2.43,0,0,0-.4-.11,2.81,2.81,0,0,0-.45,0,2,2,0,0,0-1.16.45,3.6,3.6,0,0,0-1.05,1.56v5.62Z" style="fill:#fff"/><path d="M375.57,734.05a4.32,4.32,0,0,1-1.62-.3,3.72,3.72,0,0,1-1.31-.89,4.12,4.12,0,0,1-.86-1.44,5.6,5.6,0,0,1-.32-1.94,5.38,5.38,0,0,1,.34-2,4.44,4.44,0,0,1,.92-1.45,3.77,3.77,0,0,1,1.34-.9,4.2,4.2,0,0,1,1.61-.31,3.2,3.2,0,0,1,1.48.31,4.62,4.62,0,0,1,1.08.72l-.76,1a3.61,3.61,0,0,0-.8-.56,2.06,2.06,0,0,0-.94-.21,2.53,2.53,0,0,0-1.1.24,2.39,2.39,0,0,0-.86.69,3.52,3.52,0,0,0-.57,1.07,4.34,4.34,0,0,0-.21,1.38,4.48,4.48,0,0,0,.2,1.37,3.08,3.08,0,0,0,.55,1,2.47,2.47,0,0,0,.85.69,2.56,2.56,0,0,0,1.1.24,2.54,2.54,0,0,0,1.13-.26,4.63,4.63,0,0,0,.92-.62l.65,1a4.58,4.58,0,0,1-1.31.82A4.1,4.1,0,0,1,375.57,734.05Z" style="fill:#fff"/><path d="M380.32,733.84V721h1.47v3.49l-.05,1.8a8.67,8.67,0,0,1,1.31-1,2.94,2.94,0,0,1,1.61-.43,2.34,2.34,0,0,1,2,.87,4.23,4.23,0,0,1,.64,2.55v5.55h-1.48v-5.35a3.17,3.17,0,0,0-.39-1.79,1.45,1.45,0,0,0-1.26-.55,2.14,2.14,0,0,0-1.21.34,8.44,8.44,0,0,0-1.19,1v6.34Z" style="fill:#fff"/><path d="M393,733.84V733c.87-.87,1.63-1.65,2.31-2.34a25.54,25.54,0,0,0,1.69-1.94,9.11,9.11,0,0,0,1-1.64,3.33,3.33,0,0,0,.36-1.45,2.4,2.4,0,0,0-.54-1.62,2,2,0,0,0-1.63-.63,2.4,2.4,0,0,0-1.34.41,5.39,5.39,0,0,0-1.11,1l-.85-.85a6.89,6.89,0,0,1,1.53-1.27,3.86,3.86,0,0,1,1.95-.47,3.44,3.44,0,0,1,2.52.92,3.35,3.35,0,0,1,.91,2.46,4,4,0,0,1-.35,1.63,9,9,0,0,1-1,1.69,19.79,19.79,0,0,1-1.48,1.82c-.57.63-1.19,1.3-1.88,2l1-.08,1,0h3.33v1.28Z" style="fill:#fff"/><path d="M405.66,734.05a3,3,0,0,1-2.72-1.55,8.45,8.45,0,0,1-1-4.44,8.29,8.29,0,0,1,1-4.41,3.19,3.19,0,0,1,5.42,0,8.2,8.2,0,0,1,1,4.41,8.36,8.36,0,0,1-1,4.44A3,3,0,0,1,405.66,734.05Zm0-1.18a1.6,1.6,0,0,0,.91-.28,2.33,2.33,0,0,0,.7-.87,5.47,5.47,0,0,0,.46-1.49,12.42,12.42,0,0,0,.16-2.17,12.22,12.22,0,0,0-.16-2.16,5.2,5.2,0,0,0-.46-1.47,2.29,2.29,0,0,0-.7-.84,1.67,1.67,0,0,0-.91-.26,1.75,1.75,0,0,0-.92.26,2.31,2.31,0,0,0-.71.84,5.2,5.2,0,0,0-.46,1.47,13.25,13.25,0,0,0-.16,2.16,8.11,8.11,0,0,0,.62,3.66A1.87,1.87,0,0,0,405.66,732.87Z" style="fill:#fff"/><path d="M411.55,733.84v-1.23h2.63v-8.46h-2.09v-.95a8.75,8.75,0,0,0,1.37-.35,5.78,5.78,0,0,0,1.06-.5h1.13v10.26H418v1.23Z" style="fill:#fff"/><path d="M423.57,734.05a4.81,4.81,0,0,1-1.5-.23,3.7,3.7,0,0,1-1.19-.66,3,3,0,0,1-.78-1,2.78,2.78,0,0,1-.29-1.26,2.7,2.7,0,0,1,.19-1,3.37,3.37,0,0,1,.49-.87,3.65,3.65,0,0,1,.68-.68,4.9,4.9,0,0,1,.8-.51v-.07a5.5,5.5,0,0,1-1.12-1.09,2.54,2.54,0,0,1-.48-1.56,2.82,2.82,0,0,1,.25-1.21,2.86,2.86,0,0,1,.68-.92,3.2,3.2,0,0,1,1-.61,3.9,3.9,0,0,1,1.3-.21,3.82,3.82,0,0,1,1.35.22,3,3,0,0,1,1,.63,2.67,2.67,0,0,1,.65,1,3.34,3.34,0,0,1,.23,1.24,2.27,2.27,0,0,1-.16.86,3.45,3.45,0,0,1-.38.77,3,3,0,0,1-.5.65,4,4,0,0,1-.55.49V728a5.66,5.66,0,0,1,.74.5,3.47,3.47,0,0,1,.64.63,2.82,2.82,0,0,1,.62,1.82,2.75,2.75,0,0,1-.27,1.21,3,3,0,0,1-.76,1,3.48,3.48,0,0,1-1.17.65A4.78,4.78,0,0,1,423.57,734.05Zm0-1.09a2.37,2.37,0,0,0,1.63-.56,1.88,1.88,0,0,0,.62-1.46,1.79,1.79,0,0,0-.25-1,2.42,2.42,0,0,0-.69-.7,5.53,5.53,0,0,0-1-.54c-.38-.16-.77-.33-1.18-.49a4.74,4.74,0,0,0-1.14,1.09,2.27,2.27,0,0,0-.46,1.41,2.05,2.05,0,0,0,.71,1.57,2.49,2.49,0,0,0,.79.46A2.78,2.78,0,0,0,423.61,733Zm.77-5.39a4.07,4.07,0,0,0,.89-1.1,2.45,2.45,0,0,0,.32-1.2,2.13,2.13,0,0,0-.52-1.45,1.88,1.88,0,0,0-1.48-.58,1.82,1.82,0,0,0-1.33.5A2,2,0,0,0,422,726a2.3,2.3,0,0,0,.59.66,4.57,4.57,0,0,0,.84.51C423.7,727.3,424,727.44,424.38,727.57Z" style="fill:#fff"/><path d="M63.55,79.9a2.6,2.6,0,0,1-2.23-1.1,5.49,5.49,0,0,1-.79-3.22,9.3,9.3,0,0,1,1.3-5A10.34,10.34,0,0,1,65.62,67l1.15,1.87A9.19,9.19,0,0,0,64,71.48a6,6,0,0,0-.92,3.38,1.53,1.53,0,0,1,.43,0,2.77,2.77,0,0,1,1.76.63,2.19,2.19,0,0,1,.79,1.82,2.57,2.57,0,0,1-.72,1.94A2.5,2.5,0,0,1,63.55,79.9Zm8.45,0a2.6,2.6,0,0,1-2.23-1.1A5.49,5.49,0,0,1,69,75.58a9.39,9.39,0,0,1,1.29-5A10.45,10.45,0,0,1,74.07,67l1.15,1.87a9.36,9.36,0,0,0-2.74,2.57,5.94,5.94,0,0,0-.91,3.38,1.53,1.53,0,0,1,.43,0,2.73,2.73,0,0,1,1.75.63,2.17,2.17,0,0,1,.8,1.82,2.57,2.57,0,0,1-.72,1.94A2.5,2.5,0,0,1,72,79.9Z" style="fill:#fff"/><path d="M86.59,100.44,79.92,69h4.13l3.31,17.13c.29,1.73.59,3.43.91,5.09s.63,3.36.92,5.09h.19q.53-2.59,1.1-5.11c.39-1.68.75-3.37,1.11-5.07L96,69H99.6L104,86.09c.38,1.67.77,3.35,1.15,5s.77,3.41,1.15,5.14h.2c.28-1.73.57-3.43.86-5.11s.59-3.37.91-5.07L111.55,69h3.84l-6.52,31.48h-4.8l-4.76-19c-.28-1.21-.55-2.4-.79-3.57s-.49-2.36-.74-3.58h-.19c-.26,1.22-.53,2.41-.8,3.58s-.53,2.36-.79,3.57l-4.65,19Z" style="fill:#fff"/><path d="M120.48,100.44V66.27h3.94v9.31l-.15,4.8a21.44,21.44,0,0,1,3.51-2.71,8,8,0,0,1,4.27-1.13q3.69,0,5.4,2.3t1.7,6.82v14.78h-3.93V86.19a8.38,8.38,0,0,0-1.06-4.78A3.86,3.86,0,0,0,130.8,80a5.73,5.73,0,0,0-3.22.91,20.85,20.85,0,0,0-3.16,2.69v16.89Z" style="fill:#fff"/><path d="M148.61,72.32a2.8,2.8,0,0,1-2-.72,2.54,2.54,0,0,1,0-3.68,3.09,3.09,0,0,1,3.89,0,2.54,2.54,0,0,1,0,3.68A2.77,2.77,0,0,1,148.61,72.32Zm-2,28.12V77.12h3.94v23.32Z" style="fill:#fff"/><path d="M167.62,101a11.26,11.26,0,0,1-4.32-.82,9.54,9.54,0,0,1-3.48-2.37A11.12,11.12,0,0,1,157.51,94a14.85,14.85,0,0,1-.84-5.16,14.12,14.12,0,0,1,.91-5.21A11.75,11.75,0,0,1,160,79.76a10.17,10.17,0,0,1,3.58-2.4,11.33,11.33,0,0,1,4.29-.82,8.65,8.65,0,0,1,3.94.82,12.91,12.91,0,0,1,2.88,1.92l-2,2.59a9.65,9.65,0,0,0-2.13-1.49,5.5,5.5,0,0,0-2.52-.58,6.69,6.69,0,0,0-2.93.65,6.52,6.52,0,0,0-2.3,1.85,9.17,9.17,0,0,0-1.52,2.86,11.73,11.73,0,0,0-.55,3.67,11.91,11.91,0,0,0,.53,3.65,8.85,8.85,0,0,0,1.46,2.8A6.51,6.51,0,0,0,165,97.11a6.72,6.72,0,0,0,2.93.65,6.56,6.56,0,0,0,3-.7,11.86,11.86,0,0,0,2.47-1.66L175.15,98a12.41,12.41,0,0,1-3.5,2.19A10.45,10.45,0,0,1,167.62,101Z" style="fill:#fff"/><path d="M180.29,100.44V66.27h3.93v9.31l-.14,4.8a21.8,21.8,0,0,1,3.5-2.71,8,8,0,0,1,4.28-1.13q3.69,0,5.4,2.3t1.7,6.82v14.78H195V86.19A8.39,8.39,0,0,0,194,81.41,3.89,3.89,0,0,0,190.61,80a5.73,5.73,0,0,0-3.22.91,20.85,20.85,0,0,0-3.17,2.69v16.89Z" style="fill:#fff"/><path d="M222.09,101a12.74,12.74,0,0,1-4.75-.91,14.86,14.86,0,0,1-3.93-2.31l2-2.64a15.63,15.63,0,0,0,3.15,2,8.55,8.55,0,0,0,3.72.77,4.91,4.91,0,0,0,3.45-1.06,3.38,3.38,0,0,0,1.16-2.59,2.62,2.62,0,0,0-.48-1.58,4.78,4.78,0,0,0-1.23-1.18,8.75,8.75,0,0,0-1.7-.89l-1.92-.77c-.83-.28-1.67-.61-2.5-1a10.48,10.48,0,0,1-2.23-1.34,6.91,6.91,0,0,1-1.61-1.85,5,5,0,0,1-.62-2.55,6.24,6.24,0,0,1,.55-2.61,6.07,6.07,0,0,1,1.58-2.11,7.49,7.49,0,0,1,2.52-1.4,10.68,10.68,0,0,1,3.36-.5,10.49,10.49,0,0,1,4.06.77,12.36,12.36,0,0,1,3.19,1.87L228,81.68a12.14,12.14,0,0,0-2.5-1.49,6.76,6.76,0,0,0-2.83-.58,4.51,4.51,0,0,0-3.24,1,3.18,3.18,0,0,0-1,2.35,2.34,2.34,0,0,0,.43,1.42,4,4,0,0,0,1.15,1,9.17,9.17,0,0,0,1.66.82l1.94.74c.84.32,1.68.66,2.52,1a9.45,9.45,0,0,1,2.28,1.32,6.38,6.38,0,0,1,1.66,2,5.58,5.58,0,0,1,.65,2.78,6.7,6.7,0,0,1-.55,2.69A6.48,6.48,0,0,1,228.45,99a7.81,7.81,0,0,1-2.68,1.51A11.57,11.57,0,0,1,222.09,101Z" style="fill:#fff"/><path d="M236.11,110.28V77.12h3.26l.34,2.68h.14a18.25,18.25,0,0,1,3.48-2.3,8.69,8.69,0,0,1,4-1,9,9,0,0,1,4,.84,7.77,7.77,0,0,1,2.88,2.4,11.25,11.25,0,0,1,1.75,3.74,18.63,18.63,0,0,1,.6,4.92,15.83,15.83,0,0,1-.82,5.31,12.4,12.4,0,0,1-2.2,4,9.3,9.3,0,0,1-3.22,2.47,9.1,9.1,0,0,1-3.84.84,7.85,7.85,0,0,1-3.24-.72,16.63,16.63,0,0,1-3.24-2l.1,4.08v7.87Zm9.65-12.57a5.6,5.6,0,0,0,2.66-.65,6.31,6.31,0,0,0,2.11-1.82,9,9,0,0,0,1.4-2.91,14.11,14.11,0,0,0,.5-3.89,16.49,16.49,0,0,0-.34-3.5A7.62,7.62,0,0,0,251,82.23a5,5,0,0,0-1.92-1.75,5.85,5.85,0,0,0-2.8-.63,6.17,6.17,0,0,0-3,.82A17.39,17.39,0,0,0,240.05,83V95.26a10.4,10.4,0,0,0,3.07,1.9A7.89,7.89,0,0,0,245.76,97.71Z" style="fill:#fff"/><path d="M272.21,101a11.45,11.45,0,0,1-4.4-.84,10.42,10.42,0,0,1-3.55-2.4A10.94,10.94,0,0,1,261.89,94a15.48,15.48,0,0,1,0-10.29,12.22,12.22,0,0,1,2.35-3.87,10.32,10.32,0,0,1,3.34-2.42,9.39,9.39,0,0,1,3.89-.84,9.82,9.82,0,0,1,4,.77,7.71,7.71,0,0,1,2.92,2.21,9.93,9.93,0,0,1,1.8,3.45,15.13,15.13,0,0,1,.63,4.51q0,.63,0,1.23a4.94,4.94,0,0,1-.12,1H264.91a9.13,9.13,0,0,0,2.33,5.93,7.22,7.22,0,0,0,5.45,2.18,9.27,9.27,0,0,0,3.09-.5A13.86,13.86,0,0,0,278.49,96l1.4,2.59a20,20,0,0,1-3.41,1.68A11.83,11.83,0,0,1,272.21,101Zm-7.35-14.11h12.48a8.34,8.34,0,0,0-1.51-5.4,5.19,5.19,0,0,0-4.25-1.85,6,6,0,0,0-4.41,1.9,7.64,7.64,0,0,0-1.52,2.28A10.31,10.31,0,0,0,264.86,86.91Z" style="fill:#fff"/><path d="M295.77,101a11.34,11.34,0,0,1-4.32-.82A9.71,9.71,0,0,1,288,97.83a11.26,11.26,0,0,1-2.3-3.84,14.85,14.85,0,0,1-.84-5.16,13.91,13.91,0,0,1,.91-5.21,11.59,11.59,0,0,1,2.45-3.86,10,10,0,0,1,3.58-2.4,11.29,11.29,0,0,1,4.29-.82,8.65,8.65,0,0,1,3.94.82,13.38,13.38,0,0,1,2.88,1.92l-2,2.59a9.65,9.65,0,0,0-2.13-1.49,5.56,5.56,0,0,0-2.52-.58,6.66,6.66,0,0,0-2.93.65A6.55,6.55,0,0,0,291,82.3a9.15,9.15,0,0,0-1.51,2.86,11.45,11.45,0,0,0-.55,3.67,11.62,11.62,0,0,0,.53,3.65,8.85,8.85,0,0,0,1.46,2.8,6.33,6.33,0,0,0,2.28,1.83,6.69,6.69,0,0,0,2.93.65,6.56,6.56,0,0,0,3-.7,12.13,12.13,0,0,0,2.47-1.66L303.31,98a12.7,12.7,0,0,1-3.5,2.19A10.5,10.5,0,0,1,295.77,101Z" style="fill:#fff"/><path d="M310.46,72.32a2.76,2.76,0,0,1-1.94-.72,2.52,2.52,0,0,1,0-3.68,3.07,3.07,0,0,1,3.88,0,2.52,2.52,0,0,1,0,3.68A2.76,2.76,0,0,1,310.46,72.32Zm-2,28.12V77.12h3.94v23.32Z" style="fill:#fff"/><path d="M329.71,101a11.4,11.4,0,0,1-4.39-.84,10.46,10.46,0,0,1-3.56-2.4A11.09,11.09,0,0,1,319.39,94a15.48,15.48,0,0,1,0-10.29,12.22,12.22,0,0,1,2.35-3.87,10.32,10.32,0,0,1,3.34-2.42,9.39,9.39,0,0,1,3.89-.84,9.82,9.82,0,0,1,4,.77,7.74,7.74,0,0,1,2.93,2.21,10.28,10.28,0,0,1,1.8,3.45,15.46,15.46,0,0,1,.62,4.51c0,.42,0,.83,0,1.23a6.8,6.8,0,0,1-.12,1H322.41a9.13,9.13,0,0,0,2.33,5.93,7.22,7.22,0,0,0,5.45,2.18,9.27,9.27,0,0,0,3.09-.5A14.22,14.22,0,0,0,336,96l1.39,2.59A20,20,0,0,1,334,100.3,11.83,11.83,0,0,1,329.71,101Zm-7.35-14.11h12.48a8.34,8.34,0,0,0-1.51-5.4,5.19,5.19,0,0,0-4.25-1.85,6,6,0,0,0-2.37.48,6.22,6.22,0,0,0-2,1.42,7.62,7.62,0,0,0-1.51,2.28A10.31,10.31,0,0,0,322.36,86.91Z" style="fill:#fff"/><path d="M350.16,101a12.76,12.76,0,0,1-4.76-.91,14.86,14.86,0,0,1-3.93-2.31l2-2.64a15.3,15.3,0,0,0,3.14,2,8.55,8.55,0,0,0,3.72.77,4.94,4.94,0,0,0,3.46-1.06,3.4,3.4,0,0,0,1.15-2.59,2.62,2.62,0,0,0-.48-1.58,4.78,4.78,0,0,0-1.23-1.18,8.75,8.75,0,0,0-1.7-.89l-1.92-.77c-.83-.28-1.66-.61-2.5-1a10.48,10.48,0,0,1-2.23-1.34,7.09,7.09,0,0,1-1.61-1.85,5,5,0,0,1-.62-2.55,6.24,6.24,0,0,1,.55-2.61,6,6,0,0,1,1.59-2.11,7.3,7.3,0,0,1,2.52-1.4,10.59,10.59,0,0,1,3.36-.5,10.47,10.47,0,0,1,4.05.77,12.36,12.36,0,0,1,3.19,1.87L356,81.68a12.34,12.34,0,0,0-2.49-1.49,6.84,6.84,0,0,0-2.84-.58,4.51,4.51,0,0,0-3.24,1,3.22,3.22,0,0,0-1,2.35,2.41,2.41,0,0,0,.43,1.42,4.08,4.08,0,0,0,1.16,1,9.06,9.06,0,0,0,1.65.82l2,.74c.83.32,1.67.66,2.52,1a9.85,9.85,0,0,1,2.28,1.32,6.49,6.49,0,0,1,1.65,2,5.58,5.58,0,0,1,.65,2.78,6.54,6.54,0,0,1-.55,2.69A6.45,6.45,0,0,1,356.52,99a7.86,7.86,0,0,1-2.69,1.51A11.51,11.51,0,0,1,350.16,101Z" style="fill:#fff"/><path d="M377.47,100.44,371,77.12h4l3.45,13.48c.26,1.12.5,2.21.73,3.27s.44,2.13.67,3.21h.19c.25-1.08.51-2.16.77-3.24s.52-2.15.81-3.24l3.6-13.48h3.84l3.65,13.48.84,3.27c.27,1,.54,2.13.79,3.21h.19c.26-1.08.5-2.16.73-3.21s.46-2.15.72-3.27l3.4-13.48h3.75l-6.24,23.32h-4.8l-3.36-12.52c-.29-1.12-.55-2.23-.79-3.32s-.51-2.22-.8-3.4H387c-.26,1.18-.51,2.32-.77,3.43s-.54,2.21-.86,3.33l-3.26,12.48Z" style="fill:#fff"/><path d="M417.12,101a10.44,10.44,0,0,1-4.11-.82,10.07,10.07,0,0,1-3.43-2.37A11.57,11.57,0,0,1,407.2,94a14.17,14.17,0,0,1-.88-5.16,14.34,14.34,0,0,1,.88-5.21,11.77,11.77,0,0,1,2.38-3.86,9.88,9.88,0,0,1,3.43-2.4,10.69,10.69,0,0,1,8.21,0,9.79,9.79,0,0,1,3.43,2.4A11.94,11.94,0,0,1,427,83.62a14.33,14.33,0,0,1,.89,5.21A14.17,14.17,0,0,1,427,94a11.74,11.74,0,0,1-2.38,3.84,10,10,0,0,1-3.43,2.37A10.39,10.39,0,0,1,417.12,101Zm0-3.26a5.85,5.85,0,0,0,2.73-.65A6.32,6.32,0,0,0,422,95.28a8.71,8.71,0,0,0,1.37-2.8,13.34,13.34,0,0,0,.47-3.65,13.49,13.49,0,0,0-.47-3.67A8.94,8.94,0,0,0,422,82.3a6.28,6.28,0,0,0-2.14-1.85,6.08,6.08,0,0,0-5.47,0,6.19,6.19,0,0,0-2.14,1.85,8.93,8.93,0,0,0-1.36,2.86,12.74,12.74,0,0,0-.48,3.67,12.6,12.6,0,0,0,.48,3.65,8.7,8.7,0,0,0,1.36,2.8,6.23,6.23,0,0,0,2.14,1.83A5.86,5.86,0,0,0,417.12,97.76Z" style="fill:#fff"/><path d="M440.88,101q-3.75,0-5.45-2.3t-1.71-6.82V77.12h4V91.37a8.5,8.5,0,0,0,1,4.78,3.81,3.81,0,0,0,3.34,1.46,5.65,5.65,0,0,0,3.21-.93,15.37,15.37,0,0,0,3.07-3V77.12h3.94v23.32H449l-.34-3.64h-.15a15.41,15.41,0,0,1-3.43,3.07A7.67,7.67,0,0,1,440.88,101Z" style="fill:#fff"/><path d="M464.35,101a3.69,3.69,0,0,1-3.22-1.34,6.76,6.76,0,0,1-1-3.94V66.27h3.94V96a2.06,2.06,0,0,0,.33,1.34,1,1,0,0,0,.77.39h.36a2.26,2.26,0,0,0,.5-.1l.53,3a3.49,3.49,0,0,1-.91.28A7.11,7.11,0,0,1,464.35,101Z" style="fill:#fff"/><path d="M480.38,101a8.64,8.64,0,0,1-7-3.17q-2.62-3.16-2.62-9a14.68,14.68,0,0,1,.84-5.11,12.17,12.17,0,0,1,2.23-3.87A10,10,0,0,1,477,77.4a8.91,8.91,0,0,1,3.84-.86,8,8,0,0,1,3.5.72,16,16,0,0,1,3,2l-.2-4v-9h4v34.17h-3.27l-.33-2.73h-.15a15.14,15.14,0,0,1-3.19,2.33A8,8,0,0,1,480.38,101Zm.86-3.31a6.35,6.35,0,0,0,3.07-.79,11.08,11.08,0,0,0,2.88-2.43V82.3a9.87,9.87,0,0,0-2.85-1.9,7.6,7.6,0,0,0-2.81-.55,5.56,5.56,0,0,0-2.62.65,6.57,6.57,0,0,0-2.13,1.82,9.08,9.08,0,0,0-1.44,2.81,11.91,11.91,0,0,0-.53,3.65,11.17,11.17,0,0,0,1.68,6.58A5.51,5.51,0,0,0,481.24,97.71Z" style="fill:#fff"/><path d="M509,110.48a8.57,8.57,0,0,1-1.49-.12,6.63,6.63,0,0,1-1.24-.36l.76-3.12.87.21a3.74,3.74,0,0,0,.91.12,4.24,4.24,0,0,0,3.29-1.41,10,10,0,0,0,2-3.58l.53-1.73-9.36-23.37h4.08L514.12,90c.35,1,.73,2.1,1.13,3.24s.77,2.25,1.13,3.33h.19c.35-1,.69-2.16,1-3.31s.64-2.24,1-3.26l4.17-12.91h3.84l-8.78,25.24a27.34,27.34,0,0,1-1.39,3.22,10.71,10.71,0,0,1-1.83,2.57,7.89,7.89,0,0,1-2.4,1.7A7.24,7.24,0,0,1,509,110.48Z" style="fill:#fff"/><path d="M539.94,101a10.39,10.39,0,0,1-4.1-.82,10,10,0,0,1-3.43-2.37A11.57,11.57,0,0,1,530,94a14.17,14.17,0,0,1-.89-5.16,14.33,14.33,0,0,1,.89-5.21,11.77,11.77,0,0,1,2.38-3.86,9.79,9.79,0,0,1,3.43-2.4,10.69,10.69,0,0,1,8.21,0,9.88,9.88,0,0,1,3.43,2.4,11.94,11.94,0,0,1,2.38,3.86,14.34,14.34,0,0,1,.88,5.21,14.17,14.17,0,0,1-.88,5.16,11.74,11.74,0,0,1-2.38,3.84,10.07,10.07,0,0,1-3.43,2.37A10.44,10.44,0,0,1,539.94,101Zm0-3.26a5.86,5.86,0,0,0,2.74-.65,6.32,6.32,0,0,0,2.14-1.83,8.7,8.7,0,0,0,1.36-2.8,13,13,0,0,0,.48-3.65,13.1,13.1,0,0,0-.48-3.67,8.93,8.93,0,0,0-1.36-2.86,6.28,6.28,0,0,0-2.14-1.85,6.08,6.08,0,0,0-5.47,0,6.19,6.19,0,0,0-2.14,1.85,8.94,8.94,0,0,0-1.37,2.86,13.1,13.1,0,0,0-.48,3.67,13,13,0,0,0,.48,3.65,8.71,8.71,0,0,0,1.37,2.8,6.23,6.23,0,0,0,2.14,1.83A5.85,5.85,0,0,0,539.94,97.76Z" style="fill:#fff"/><path d="M563.7,101c-2.49,0-4.31-.77-5.44-2.3s-1.71-3.81-1.71-6.82V77.12h4V91.37a8.5,8.5,0,0,0,1,4.78,3.81,3.81,0,0,0,3.33,1.46,5.66,5.66,0,0,0,3.22-.93,15.37,15.37,0,0,0,3.07-3V77.12h3.94v23.32h-3.27l-.33-3.64h-.15A15.41,15.41,0,0,1,568,99.87,7.68,7.68,0,0,1,563.7,101Z" style="fill:#fff"/><path d="M592.6,110.28V77.12h3.26l.34,2.68h.14a18.25,18.25,0,0,1,3.48-2.3,8.69,8.69,0,0,1,4-1,9,9,0,0,1,4,.84,7.77,7.77,0,0,1,2.88,2.4,11.25,11.25,0,0,1,1.75,3.74,18.63,18.63,0,0,1,.6,4.92,15.83,15.83,0,0,1-.82,5.31,12.23,12.23,0,0,1-2.21,4,9.27,9.27,0,0,1-3.21,2.47,9.1,9.1,0,0,1-3.84.84,7.85,7.85,0,0,1-3.24-.72,16.63,16.63,0,0,1-3.24-2l.1,4.08v7.87Zm9.65-12.57a5.63,5.63,0,0,0,2.66-.65A6.31,6.31,0,0,0,607,95.24a9,9,0,0,0,1.4-2.91,14.11,14.11,0,0,0,.5-3.89,16.49,16.49,0,0,0-.34-3.5,7.62,7.62,0,0,0-1.08-2.71,5,5,0,0,0-1.92-1.75,5.85,5.85,0,0,0-2.8-.63,6.17,6.17,0,0,0-3,.82A17.39,17.39,0,0,0,596.54,83V95.26a10.4,10.4,0,0,0,3.07,1.9A7.89,7.89,0,0,0,602.25,97.71Z" style="fill:#fff"/><path d="M619.24,100.44V77.12h3.26l.34,4.22H623a10.71,10.71,0,0,1,2.91-3.5,6,6,0,0,1,3.72-1.3,6.18,6.18,0,0,1,2.49.48l-.77,3.46a7.67,7.67,0,0,0-1.05-.29,5.78,5.78,0,0,0-1.2-.1,5.24,5.24,0,0,0-3.1,1.2,9.55,9.55,0,0,0-2.81,4.18v15Z" style="fill:#fff"/><path d="M644.87,101a11.4,11.4,0,0,1-4.39-.84,10.33,10.33,0,0,1-3.55-2.4A11.11,11.11,0,0,1,634.55,94a15.65,15.65,0,0,1,0-10.29,12.24,12.24,0,0,1,2.36-3.87,10.17,10.17,0,0,1,3.33-2.42,9.43,9.43,0,0,1,3.89-.84,9.82,9.82,0,0,1,4,.77A7.74,7.74,0,0,1,651,79.52a10.28,10.28,0,0,1,1.8,3.45,15.46,15.46,0,0,1,.62,4.51c0,.42,0,.83,0,1.23a6.8,6.8,0,0,1-.12,1H637.57a9.13,9.13,0,0,0,2.33,5.93,7.22,7.22,0,0,0,5.45,2.18,9.37,9.37,0,0,0,3.1-.5A14.43,14.43,0,0,0,651.16,96l1.39,2.59a19.68,19.68,0,0,1-3.41,1.68A11.83,11.83,0,0,1,644.87,101Zm-7.34-14.11H650a8.33,8.33,0,0,0-1.52-5.4,5.17,5.17,0,0,0-4.24-1.85,6,6,0,0,0-2.38.48,6.22,6.22,0,0,0-2,1.42,7.62,7.62,0,0,0-1.51,2.28A10,10,0,0,0,637.53,86.91Z" style="fill:#fff"/><path d="M659.89,100.44V80.33h-3.16v-3l3.16-.24v-3.7a8.81,8.81,0,0,1,1.66-5.66q1.65-2.07,5.16-2.07a9.37,9.37,0,0,1,2.09.22,11.18,11.18,0,0,1,1.8.55l-.87,3a6.47,6.47,0,0,0-2.64-.57q-3.26,0-3.26,4.51v3.7h4.94v3.21h-4.94v20.11Z" style="fill:#fff"/><path d="M682.21,101a11.44,11.44,0,0,1-4.39-.84,10.42,10.42,0,0,1-3.55-2.4A11.11,11.11,0,0,1,671.89,94a14.37,14.37,0,0,1-.86-5.13,14.17,14.17,0,0,1,.89-5.16,12,12,0,0,1,2.35-3.87,10.32,10.32,0,0,1,3.34-2.42,9.35,9.35,0,0,1,3.88-.84,9.75,9.75,0,0,1,4,.77,7.67,7.67,0,0,1,2.93,2.21,9.93,9.93,0,0,1,1.8,3.45,15.13,15.13,0,0,1,.63,4.51q0,.63,0,1.23a4.94,4.94,0,0,1-.12,1H674.92a9.08,9.08,0,0,0,2.33,5.93,7.19,7.19,0,0,0,5.44,2.18,9.33,9.33,0,0,0,3.1-.5A14.14,14.14,0,0,0,688.5,96l1.39,2.59a19.93,19.93,0,0,1-3.4,1.68A11.89,11.89,0,0,1,682.21,101Zm-7.34-14.11h12.48a8.34,8.34,0,0,0-1.51-5.4,5.2,5.2,0,0,0-4.25-1.85,6.06,6.06,0,0,0-2.38.48,6.22,6.22,0,0,0-2,1.42,7.81,7.81,0,0,0-1.51,2.28A10.31,10.31,0,0,0,674.87,86.91Z" style="fill:#fff"/><path d="M696.57,100.44V77.12h3.26l.34,4.22h.14a10.81,10.81,0,0,1,2.9-3.5,6,6,0,0,1,3.72-1.3,6.23,6.23,0,0,1,2.5.48l-.77,3.46a7.67,7.67,0,0,0-1-.29,5.78,5.78,0,0,0-1.2-.1,5.21,5.21,0,0,0-3.1,1.2,9.55,9.55,0,0,0-2.81,4.18v15Z" style="fill:#fff"/><path d="M87,158.62a7.09,7.09,0,0,1-4.88-1.73A6.21,6.21,0,0,1,80.16,152a6.51,6.51,0,0,1,3.41-5.89c2.27-1.35,5.9-2.31,10.89-2.85a11,11,0,0,0-.21-2.16,5.36,5.36,0,0,0-.75-1.87A3.81,3.81,0,0,0,92,137.91a4.94,4.94,0,0,0-2.38-.51,9.51,9.51,0,0,0-3.79.77,18.61,18.61,0,0,0-3.17,1.73l-1.53-2.74a26.12,26.12,0,0,1,4-2,13.44,13.44,0,0,1,5.19-1c2.84,0,4.91.87,6.19,2.61a11.58,11.58,0,0,1,1.92,7V158H95.18l-.33-2.78H94.7a19.3,19.3,0,0,1-3.6,2.37A8.85,8.85,0,0,1,87,158.62Zm1.15-3.17a6.65,6.65,0,0,0,3.17-.79,15.76,15.76,0,0,0,3.16-2.33v-6.48a41.17,41.17,0,0,0-4.92.91A13.26,13.26,0,0,0,86.33,148a4.8,4.8,0,0,0-1.78,1.66,3.9,3.9,0,0,0-.55,2,3.32,3.32,0,0,0,1.2,2.88A4.93,4.93,0,0,0,88.13,155.45Z" style="fill:#fff"/><path d="M111.89,158.62a12.67,12.67,0,0,1-4.75-.91,14.77,14.77,0,0,1-3.94-2.31l2-2.64a15.3,15.3,0,0,0,3.14,2,8.55,8.55,0,0,0,3.72.77,4.94,4.94,0,0,0,3.46-1.06,3.37,3.37,0,0,0,1.15-2.59,2.67,2.67,0,0,0-.48-1.59,5,5,0,0,0-1.22-1.17,9.15,9.15,0,0,0-1.71-.89l-1.92-.77c-.83-.29-1.66-.61-2.49-1a10,10,0,0,1-2.24-1.35,6.68,6.68,0,0,1-1.6-1.84,4.9,4.9,0,0,1-.63-2.55,6.39,6.39,0,0,1,.55-2.61,6,6,0,0,1,1.59-2.11,7.49,7.49,0,0,1,2.52-1.4,10.59,10.59,0,0,1,3.36-.5,10.47,10.47,0,0,1,4,.77,12.43,12.43,0,0,1,3.2,1.87l-1.88,2.49a12.76,12.76,0,0,0-2.49-1.48,6.82,6.82,0,0,0-2.83-.58,4.48,4.48,0,0,0-3.24,1,3.19,3.19,0,0,0-1,2.35,2.35,2.35,0,0,0,.44,1.42,3.91,3.91,0,0,0,1.15,1,9.06,9.06,0,0,0,1.65.82l2,.74c.83.32,1.67.66,2.52,1a9.45,9.45,0,0,1,2.28,1.32,6.49,6.49,0,0,1,1.65,1.95,5.47,5.47,0,0,1,.65,2.78,6.54,6.54,0,0,1-.55,2.69,6.45,6.45,0,0,1-1.63,2.21,7.86,7.86,0,0,1-2.69,1.51A11.51,11.51,0,0,1,111.89,158.62Z" style="fill:#fff"/><path d="M135.89,168.08a9.57,9.57,0,0,1-1.49-.12,6.74,6.74,0,0,1-1.25-.37l.77-3.11.86.21a3.81,3.81,0,0,0,.92.12A4.2,4.2,0,0,0,139,163.4a10.06,10.06,0,0,0,2-3.58l.52-1.73-9.36-23.38h4.08L141,147.63c.35,1,.72,2.1,1.12,3.24s.78,2.25,1.13,3.33h.19c.35-1,.69-2.16,1-3.31s.64-2.24,1-3.26l4.18-12.92h3.84L144.62,160a26.43,26.43,0,0,1-1.39,3.22,10.68,10.68,0,0,1-1.82,2.57,8.33,8.33,0,0,1-2.4,1.7A7.3,7.3,0,0,1,135.89,168.08Z" style="fill:#fff"/><path d="M166.8,158.62a10.35,10.35,0,0,1-4.1-.82,10,10,0,0,1-3.44-2.37,11.55,11.55,0,0,1-2.37-3.84,14,14,0,0,1-.89-5.16,14.12,14.12,0,0,1,.89-5.21,11.91,11.91,0,0,1,2.37-3.87A9.93,9.93,0,0,1,162.7,135a10.66,10.66,0,0,1,8.2,0,10,10,0,0,1,3.44,2.39,11.91,11.91,0,0,1,2.37,3.87,14.33,14.33,0,0,1,.89,5.21,14.17,14.17,0,0,1-.89,5.16,11.55,11.55,0,0,1-2.37,3.84,10.1,10.1,0,0,1-3.44,2.37A10.35,10.35,0,0,1,166.8,158.62Zm0-3.27a5.91,5.91,0,0,0,2.74-.64,6.31,6.31,0,0,0,2.13-1.83,8.71,8.71,0,0,0,1.37-2.8,13,13,0,0,0,.48-3.65,13.22,13.22,0,0,0-.48-3.68,9,9,0,0,0-1.37-2.85,6.16,6.16,0,0,0-2.13-1.85,6.1,6.1,0,0,0-5.48,0,6.16,6.16,0,0,0-2.13,1.85,8.78,8.78,0,0,0-1.37,2.85,13.22,13.22,0,0,0-.48,3.68,13,13,0,0,0,.48,3.65,8.51,8.51,0,0,0,1.37,2.8,6.31,6.31,0,0,0,2.13,1.83A5.91,5.91,0,0,0,166.8,155.35Z" style="fill:#fff"/><path d="M190.56,158.62c-2.5,0-4.31-.77-5.45-2.31s-1.7-3.8-1.7-6.81V134.71h4V149a8.5,8.5,0,0,0,1,4.78,3.81,3.81,0,0,0,3.34,1.46,5.59,5.59,0,0,0,3.22-.94,15.08,15.08,0,0,0,3.07-3V134.71H202V158h-3.26l-.34-3.64h-.14a15.64,15.64,0,0,1-3.43,3.07A7.79,7.79,0,0,1,190.56,158.62Z" style="fill:#fff"/><path d="M209.85,158V134.71h3.27l.33,4.23h.15a10.81,10.81,0,0,1,2.9-3.5,6,6,0,0,1,3.72-1.3,6.23,6.23,0,0,1,2.5.48l-.77,3.46a7.78,7.78,0,0,0-1.06-.29,5.78,5.78,0,0,0-1.2-.1,5.21,5.21,0,0,0-3.09,1.2,9.55,9.55,0,0,0-2.81,4.18v15Z" style="fill:#fff"/><path d="M236.11,158V134.71h3.26l.34,3.37h.14a19,19,0,0,1,3.53-2.81,8.11,8.11,0,0,1,4.3-1.13q3.69,0,5.4,2.3t1.7,6.82V158h-3.93V143.79a8.38,8.38,0,0,0-1.06-4.78,3.88,3.88,0,0,0-3.36-1.46,5.73,5.73,0,0,0-3.22.91,20.37,20.37,0,0,0-3.16,2.69V158Z" style="fill:#fff"/><path d="M271.82,158.62a11.4,11.4,0,0,1-4.39-.84,10.42,10.42,0,0,1-3.55-2.4,11.11,11.11,0,0,1-2.38-3.82,14.37,14.37,0,0,1-.86-5.13,14,14,0,0,1,.89-5.16,12,12,0,0,1,2.35-3.87,10.28,10.28,0,0,1,3.33-2.42,9.43,9.43,0,0,1,3.89-.84,9.82,9.82,0,0,1,4,.77,7.72,7.72,0,0,1,2.93,2.2,10.43,10.43,0,0,1,1.8,3.46,15.46,15.46,0,0,1,.62,4.51c0,.42,0,.83,0,1.23a6.8,6.8,0,0,1-.12,1H264.53a9.14,9.14,0,0,0,2.32,5.93,7.23,7.23,0,0,0,5.45,2.18,9.37,9.37,0,0,0,3.1-.5,14.14,14.14,0,0,0,2.71-1.32l1.39,2.59a19.68,19.68,0,0,1-3.41,1.68A11.8,11.8,0,0,1,271.82,158.62Zm-7.34-14.11H277a8.39,8.39,0,0,0-1.51-5.4,5.2,5.2,0,0,0-4.25-1.85,6,6,0,0,0-2.38.48,6.34,6.34,0,0,0-2,1.41,7.8,7.8,0,0,0-1.51,2.29A9.94,9.94,0,0,0,264.48,144.51Z" style="fill:#fff"/><path d="M282.57,158l7.64-12.19-7.06-11.14h4.27l3.12,5.14c.35.64.72,1.29,1.11,1.94s.78,1.31,1.2,2H293q.52-1,1-2l1.06-1.94,2.83-5.14h4.13l-7.06,11.57L302.64,158h-4.27L295,152.62l-1.25-2.11c-.42-.71-.85-1.4-1.3-2.07h-.19c-.41.67-.81,1.36-1.2,2s-.77,1.4-1.15,2.14L286.7,158Z" style="fill:#fff"/><path d="M313.44,158.62a7.54,7.54,0,0,1-3.15-.58,5.44,5.44,0,0,1-2.06-1.58A6.23,6.23,0,0,1,307.1,154a14.16,14.16,0,0,1-.33-3.17V137.93h-3.46v-3l3.65-.25.48-6.52h3.31v6.52H317v3.22h-6.29v13a6,6,0,0,0,.79,3.34,3.16,3.16,0,0,0,2.81,1.17,5.09,5.09,0,0,0,1.34-.19,10.42,10.42,0,0,0,1.3-.43l.77,3a17.9,17.9,0,0,1-2.09.6A9.57,9.57,0,0,1,313.44,158.62Z" style="fill:#fff"/><path d="M343.49,158.62a13.9,13.9,0,0,1-4.49-.7,8.6,8.6,0,0,1-3.6-2.3,11.2,11.2,0,0,1-2.38-4.2,20.59,20.59,0,0,1-.86-6.38V126.56h4v18.57a16.52,16.52,0,0,0,.58,4.75,8.32,8.32,0,0,0,1.56,3.08,5.67,5.67,0,0,0,2.33,1.65,8,8,0,0,0,2.88.5,8.14,8.14,0,0,0,2.92-.5,6,6,0,0,0,2.36-1.65,8.19,8.19,0,0,0,1.58-3.08,16.88,16.88,0,0,0,.58-4.75V126.56h3.84V145a20.27,20.27,0,0,1-.87,6.38,11.19,11.19,0,0,1-2.37,4.2,8.66,8.66,0,0,1-3.58,2.3A13.76,13.76,0,0,1,343.49,158.62Z" style="fill:#fff"/><path d="M362.88,158V134.71h3.26l.34,3.37h.14a19,19,0,0,1,3.53-2.81,8.09,8.09,0,0,1,4.3-1.13q3.69,0,5.4,2.3t1.7,6.82V158h-3.94V143.79a8.39,8.39,0,0,0-1.05-4.78,3.89,3.89,0,0,0-3.36-1.46,5.73,5.73,0,0,0-3.22.91,20.85,20.85,0,0,0-3.17,2.69V158Z" style="fill:#fff"/><path d="M391.15,129.92a2.81,2.81,0,0,1-1.95-.73,2.53,2.53,0,0,1,0-3.67,3.09,3.09,0,0,1,3.89,0,2.53,2.53,0,0,1,0,3.67A2.78,2.78,0,0,1,391.15,129.92Zm-2,28.12V134.71h3.94V158Z" style="fill:#fff"/><path d="M410,158.62a10.35,10.35,0,0,1-4.1-.82,10,10,0,0,1-3.43-2.37,11.41,11.41,0,0,1-2.38-3.84,14.17,14.17,0,0,1-.89-5.16,14.33,14.33,0,0,1,.89-5.21,11.76,11.76,0,0,1,2.38-3.87,9.89,9.89,0,0,1,3.43-2.39,10.69,10.69,0,0,1,8.21,0,10,10,0,0,1,3.43,2.39,11.91,11.91,0,0,1,2.37,3.87,14.12,14.12,0,0,1,.89,5.21,14,14,0,0,1-.89,5.16,11.55,11.55,0,0,1-2.37,3.84,10.07,10.07,0,0,1-3.43,2.37A10.44,10.44,0,0,1,410,158.62Zm0-3.27a5.88,5.88,0,0,0,2.74-.64,6.31,6.31,0,0,0,2.13-1.83,8.51,8.51,0,0,0,1.37-2.8,13,13,0,0,0,.48-3.65,13.22,13.22,0,0,0-.48-3.68,8.78,8.78,0,0,0-1.37-2.85,6.16,6.16,0,0,0-2.13-1.85,6.08,6.08,0,0,0-5.47,0,6.1,6.1,0,0,0-2.14,1.85,9,9,0,0,0-1.37,2.85,13.22,13.22,0,0,0-.48,3.68,13,13,0,0,0,.48,3.65,8.71,8.71,0,0,0,1.37,2.8,6.25,6.25,0,0,0,2.14,1.83A5.84,5.84,0,0,0,410,155.35Z" style="fill:#fff"/><path d="M427,158V134.71h3.26l.34,3.37h.14a19,19,0,0,1,3.53-2.81,8.08,8.08,0,0,1,4.29-1.13q3.71,0,5.4,2.3t1.71,6.82V158h-3.94V143.79a8.39,8.39,0,0,0-1.05-4.78,3.89,3.89,0,0,0-3.36-1.46,5.73,5.73,0,0,0-3.22.91,20.85,20.85,0,0,0-3.17,2.69V158Z" style="fill:#fff"/><path d="M463.2,158V126.56h9A22.59,22.59,0,0,1,477,127a10.16,10.16,0,0,1,3.71,1.55,7.4,7.4,0,0,1,2.41,2.86,10,10,0,0,1,.86,4.37,10.28,10.28,0,0,1-.84,4.32,8,8,0,0,1-2.38,3,10.49,10.49,0,0,1-3.67,1.8,17.44,17.44,0,0,1-4.73.6h-5.18V158Zm4-15.74h4.7q4.13,0,6.12-1.56a5.86,5.86,0,0,0,2-4.92q0-3.4-2.09-4.73a11.82,11.82,0,0,0-6.22-1.32h-4.51Z" style="fill:#fff"/><path d="M490,158V134.71h3.26l.34,4.23h.14a10.71,10.71,0,0,1,2.91-3.5,6,6,0,0,1,3.72-1.3,6.18,6.18,0,0,1,2.49.48l-.76,3.46a8.19,8.19,0,0,0-1.06-.29,5.78,5.78,0,0,0-1.2-.1,5.24,5.24,0,0,0-3.1,1.2,9.46,9.46,0,0,0-2.8,4.18v15Z" style="fill:#fff"/><path d="M515.61,158.62a11.4,11.4,0,0,1-4.39-.84,10.33,10.33,0,0,1-3.55-2.4,11.11,11.11,0,0,1-2.38-3.82,15.65,15.65,0,0,1,0-10.29,12.24,12.24,0,0,1,2.36-3.87A10.17,10.17,0,0,1,511,135a9.43,9.43,0,0,1,3.89-.84,9.82,9.82,0,0,1,4,.77,7.72,7.72,0,0,1,2.93,2.2,10.43,10.43,0,0,1,1.8,3.46,15.46,15.46,0,0,1,.62,4.51c0,.42,0,.83,0,1.23a6.8,6.8,0,0,1-.12,1H508.31a9.15,9.15,0,0,0,2.33,5.93,7.23,7.23,0,0,0,5.45,2.18,9.37,9.37,0,0,0,3.1-.5,14.14,14.14,0,0,0,2.71-1.32l1.39,2.59a19.68,19.68,0,0,1-3.41,1.68A11.83,11.83,0,0,1,515.61,158.62Zm-7.34-14.11h12.48a8.33,8.33,0,0,0-1.52-5.4,5.17,5.17,0,0,0-4.24-1.85,6,6,0,0,0-2.38.48,6.34,6.34,0,0,0-2,1.41,7.8,7.8,0,0,0-1.51,2.29A9.94,9.94,0,0,0,508.27,144.51Z" style="fill:#fff"/><path d="M536.06,158.62a12.67,12.67,0,0,1-4.75-.91,14.77,14.77,0,0,1-3.94-2.31l2-2.64a15.3,15.3,0,0,0,3.14,2,8.55,8.55,0,0,0,3.72.77,4.94,4.94,0,0,0,3.46-1.06,3.37,3.37,0,0,0,1.15-2.59,2.67,2.67,0,0,0-.48-1.59,5,5,0,0,0-1.22-1.17,9.15,9.15,0,0,0-1.71-.89l-1.92-.77c-.83-.29-1.66-.61-2.49-1a10,10,0,0,1-2.24-1.35,6.68,6.68,0,0,1-1.6-1.84,4.9,4.9,0,0,1-.63-2.55,6.39,6.39,0,0,1,.55-2.61,6,6,0,0,1,1.59-2.11,7.49,7.49,0,0,1,2.52-1.4,10.59,10.59,0,0,1,3.36-.5,10.47,10.47,0,0,1,4.05.77,12.43,12.43,0,0,1,3.2,1.87l-1.88,2.49a12.76,12.76,0,0,0-2.49-1.48,6.82,6.82,0,0,0-2.83-.58,4.48,4.48,0,0,0-3.24,1,3.19,3.19,0,0,0-1,2.35,2.35,2.35,0,0,0,.44,1.42,3.91,3.91,0,0,0,1.15,1,9.06,9.06,0,0,0,1.65.82l2,.74c.83.32,1.67.66,2.52,1a9.45,9.45,0,0,1,2.28,1.32,6.49,6.49,0,0,1,1.65,1.95,5.47,5.47,0,0,1,.65,2.78,6.54,6.54,0,0,1-.55,2.69,6.45,6.45,0,0,1-1.63,2.21,7.86,7.86,0,0,1-2.69,1.51A11.51,11.51,0,0,1,536.06,158.62Z" style="fill:#fff"/><path d="M552.09,129.92a2.76,2.76,0,0,1-1.94-.73,2.5,2.5,0,0,1,0-3.67,3.07,3.07,0,0,1,3.88,0,2.5,2.5,0,0,1,0,3.67A2.76,2.76,0,0,1,552.09,129.92Zm-2,28.12V134.71H554V158Z" style="fill:#fff"/><path d="M569.85,158.62a8.65,8.65,0,0,1-7-3.17q-2.62-3.16-2.62-9a14.78,14.78,0,0,1,.84-5.12,12.23,12.23,0,0,1,2.23-3.86,10,10,0,0,1,3.22-2.45,9,9,0,0,1,3.84-.86,8,8,0,0,1,3.5.72,15.73,15.73,0,0,1,3,2l-.19-4v-9h4V158h-3.26l-.34-2.73h-.14a14.82,14.82,0,0,1-3.2,2.32A7.89,7.89,0,0,1,569.85,158.62Zm.86-3.31a6.39,6.39,0,0,0,3.08-.79,11.08,11.08,0,0,0,2.88-2.43V139.9a10,10,0,0,0-2.86-1.9,7.6,7.6,0,0,0-2.81-.55,5.49,5.49,0,0,0-2.61.65,6.61,6.61,0,0,0-2.14,1.82,9.08,9.08,0,0,0-1.44,2.81,11.91,11.91,0,0,0-.53,3.65A11.17,11.17,0,0,0,566,153,5.52,5.52,0,0,0,570.71,155.31Z" style="fill:#fff"/><path d="M598,158.62a11.45,11.45,0,0,1-4.4-.84,10.42,10.42,0,0,1-3.55-2.4,11.09,11.09,0,0,1-2.37-3.82,15.48,15.48,0,0,1,0-10.29A12.22,12.22,0,0,1,590,137.4a10.32,10.32,0,0,1,3.34-2.42,9.39,9.39,0,0,1,3.89-.84,9.82,9.82,0,0,1,4,.77,7.69,7.69,0,0,1,2.92,2.2,10.26,10.26,0,0,1,1.81,3.46,15.46,15.46,0,0,1,.62,4.51q0,.63,0,1.23a4.94,4.94,0,0,1-.12,1H590.68a9.15,9.15,0,0,0,2.33,5.93,7.22,7.22,0,0,0,5.45,2.18,9.27,9.27,0,0,0,3.09-.5,13.86,13.86,0,0,0,2.71-1.32l1.4,2.59a20,20,0,0,1-3.41,1.68A11.83,11.83,0,0,1,598,158.62Zm-7.35-14.11h12.48a8.34,8.34,0,0,0-1.51-5.4,5.19,5.19,0,0,0-4.25-1.85,6,6,0,0,0-2.37.48,6.13,6.13,0,0,0-2,1.41,8,8,0,0,0-1.52,2.29A10.23,10.23,0,0,0,590.63,144.51Z" style="fill:#fff"/><path d="M612.33,158V134.71h3.26l.34,3.37h.14a19,19,0,0,1,3.53-2.81,8.09,8.09,0,0,1,4.3-1.13q3.69,0,5.4,2.3t1.7,6.82V158h-3.94V143.79a8.39,8.39,0,0,0-1-4.78,3.89,3.89,0,0,0-3.36-1.46,5.73,5.73,0,0,0-3.22.91,20.85,20.85,0,0,0-3.17,2.69V158Z" style="fill:#fff"/><path d="M645.93,158.62a7.54,7.54,0,0,1-3.15-.58,5.44,5.44,0,0,1-2.06-1.58,6.23,6.23,0,0,1-1.13-2.45,14.16,14.16,0,0,1-.33-3.17V137.93H635.8v-3l3.65-.25.48-6.52h3.31v6.52h6.29v3.22h-6.29v13a6,6,0,0,0,.79,3.34,3.16,3.16,0,0,0,2.81,1.17,5.09,5.09,0,0,0,1.34-.19,10.42,10.42,0,0,0,1.3-.43l.77,3a17.9,17.9,0,0,1-2.09.6A9.57,9.57,0,0,1,645.93,158.62Z" style="fill:#fff"/><path d="M657.3,148.54a8.26,8.26,0,0,1,.12-3.39,12.46,12.46,0,0,1,1.13-2.78,14.59,14.59,0,0,1,1.66-2.37c.62-.74,1.21-1.47,1.75-2.19a14.82,14.82,0,0,0,1.37-2.18,5.29,5.29,0,0,0,.55-2.4,4.89,4.89,0,0,0-1.17-3.29,4.37,4.37,0,0,0-3.49-1.37,6.46,6.46,0,0,0-3,.74,8.54,8.54,0,0,0-2.51,2l-2.26-2.06a13.25,13.25,0,0,1,3.58-2.85,9.37,9.37,0,0,1,4.68-1.13,8.21,8.21,0,0,1,5.83,2,7.36,7.36,0,0,1,2.18,5.64,7,7,0,0,1-.58,2.88,12.9,12.9,0,0,1-1.41,2.44c-.56.77-1.15,1.53-1.78,2.28s-1.2,1.53-1.73,2.33a10.63,10.63,0,0,0-1.22,2.57,7.24,7.24,0,0,0-.24,3Zm1.83,10.08a2.72,2.72,0,0,1-2-.84,3,3,0,0,1-.81-2.14,3.09,3.09,0,0,1,.81-2.23,2.72,2.72,0,0,1,2-.84,2.78,2.78,0,0,1,2,.84,3,3,0,0,1,.84,2.23,2.89,2.89,0,0,1-.84,2.14A2.78,2.78,0,0,1,659.13,158.62Z" style="fill:#fff"/><path d="M673.14,137.35l-1.1-1.82a9,9,0,0,0,2.71-2.57,6.18,6.18,0,0,0,.89-3.43,1.3,1.3,0,0,1-.38.05,2.76,2.76,0,0,1-1.78-.62,2.18,2.18,0,0,1-.77-1.78,2.67,2.67,0,0,1,.72-2,2.48,2.48,0,0,1,1.83-.72,2.58,2.58,0,0,1,2.2,1.13,5.42,5.42,0,0,1,.82,3.24,9.1,9.1,0,0,1-1.32,5A10.62,10.62,0,0,1,673.14,137.35Zm8.45,0-1.1-1.82A9.1,9.1,0,0,0,683.2,133a6.18,6.18,0,0,0,.89-3.43,1.37,1.37,0,0,1-.39.05,2.75,2.75,0,0,1-1.77-.62,2.18,2.18,0,0,1-.77-1.78,2.67,2.67,0,0,1,.72-2,2.47,2.47,0,0,1,1.82-.72,2.59,2.59,0,0,1,2.21,1.13,5.42,5.42,0,0,1,.82,3.24,9.1,9.1,0,0,1-1.32,5A10.7,10.7,0,0,1,681.59,137.35Z" style="fill:#fff"/><path d="M383.46,444.52,377.3,268.18c1.85-.06,4.31-.1,6.16-.1Z" style="fill:#f7fff7"/><path d="M383.46,444.52,368.08,620.3a176.45,176.45,0,0,1,9.22-352.12Z" style="fill:#ff6b6b"/><path d="M383.46,444.52V268.08a176.45,176.45,0,1,1,0,352.89,143.64,143.64,0,0,1-15.38-.67Z" style="fill:#ffe66d"/><path d="M417.26,419.52a10.57,10.57,0,0,1-3.37-.52,6.47,6.47,0,0,1-2.7-1.73,8.39,8.39,0,0,1-1.78-3.15,15.32,15.32,0,0,1-.65-4.79V395.47h3v13.94a12.51,12.51,0,0,0,.43,3.56,6.28,6.28,0,0,0,1.17,2.3,4.29,4.29,0,0,0,1.75,1.25,6.13,6.13,0,0,0,2.16.37,6.22,6.22,0,0,0,2.19-.37,4.49,4.49,0,0,0,1.77-1.25,6.15,6.15,0,0,0,1.19-2.3,12.88,12.88,0,0,0,.43-3.56V395.47h2.88v13.86a15.32,15.32,0,0,1-.65,4.79,8.39,8.39,0,0,1-1.78,3.15,6.46,6.46,0,0,1-2.68,1.73A10.41,10.41,0,0,1,417.26,419.52Z"/><path d="M431.8,419.09v-17.5h2.45l.25,2.53h.11a14,14,0,0,1,2.65-2.11,6.07,6.07,0,0,1,3.22-.85,4.7,4.7,0,0,1,4,1.73,8.56,8.56,0,0,1,1.28,5.11v11.09h-3V408.4a6.22,6.22,0,0,0-.79-3.58,2.88,2.88,0,0,0-2.52-1.1,4.35,4.35,0,0,0-2.41.68,15.73,15.73,0,0,0-2.38,2v12.67Z"/><path d="M453,398a2.11,2.11,0,0,1-1.46-.53,1.78,1.78,0,0,1-.6-1.37,1.75,1.75,0,0,1,.6-1.39,2.3,2.3,0,0,1,2.91,0,1.75,1.75,0,0,1,.6,1.39,1.78,1.78,0,0,1-.6,1.37A2.11,2.11,0,0,1,453,398Zm-1.52,21.1v-17.5h3v17.5Z"/><path d="M467.26,419.52a8.53,8.53,0,0,1-3.24-.61,7.27,7.27,0,0,1-2.61-1.78,8.42,8.42,0,0,1-1.73-2.88,11.14,11.14,0,0,1-.63-3.87,10.41,10.41,0,0,1,.69-3.91,8.6,8.6,0,0,1,1.83-2.89,7.61,7.61,0,0,1,2.68-1.81,8.83,8.83,0,0,1,3.23-.61,6.66,6.66,0,0,1,2.95.61,10.42,10.42,0,0,1,2.16,1.44l-1.51,2a7.41,7.41,0,0,0-1.61-1.12,4,4,0,0,0-1.89-.43,5,5,0,0,0-3.92,1.87,6.82,6.82,0,0,0-1.13,2.14,8.59,8.59,0,0,0-.42,2.76,8.72,8.72,0,0,0,.4,2.74,6.55,6.55,0,0,0,1.1,2.1,4.85,4.85,0,0,0,1.71,1.37,5,5,0,0,0,2.19.49,4.85,4.85,0,0,0,2.25-.53,8.87,8.87,0,0,0,1.86-1.24l1.29,2a9.45,9.45,0,0,1-2.62,1.64A7.83,7.83,0,0,1,467.26,419.52Z"/><path d="M482.81,419.52a7.87,7.87,0,0,1-3.08-.61,7.57,7.57,0,0,1-2.57-1.78,8.67,8.67,0,0,1-1.78-2.88,10.47,10.47,0,0,1-.67-3.87,10.61,10.61,0,0,1,.67-3.91,8.82,8.82,0,0,1,1.78-2.89,7.38,7.38,0,0,1,2.57-1.81,8.08,8.08,0,0,1,6.16,0,7.38,7.38,0,0,1,2.57,1.81,8.84,8.84,0,0,1,1.79,2.89,10.83,10.83,0,0,1,.66,3.91,10.68,10.68,0,0,1-.66,3.87,8.69,8.69,0,0,1-1.79,2.88,7.57,7.57,0,0,1-2.57,1.78A7.84,7.84,0,0,1,482.81,419.52Zm0-2.44a4.47,4.47,0,0,0,2.06-.49,4.86,4.86,0,0,0,1.6-1.37,6.63,6.63,0,0,0,1-2.1,9.72,9.72,0,0,0,.36-2.74,9.92,9.92,0,0,0-.36-2.76,6.85,6.85,0,0,0-1-2.14,4.67,4.67,0,0,0-1.6-1.38,4.55,4.55,0,0,0-4.11,0,4.58,4.58,0,0,0-1.6,1.38,6.65,6.65,0,0,0-1,2.14,9.92,9.92,0,0,0-.36,2.76,9.72,9.72,0,0,0,.36,2.74,6.44,6.44,0,0,0,1,2.1,4.76,4.76,0,0,0,1.6,1.37A4.43,4.43,0,0,0,482.81,417.08Z"/><path d="M495.52,419.09v-17.5H498l.25,3.17h.11a8.06,8.06,0,0,1,2.18-2.63,4.55,4.55,0,0,1,2.79-1,4.65,4.65,0,0,1,1.87.36l-.58,2.6a6.44,6.44,0,0,0-.79-.22,4.56,4.56,0,0,0-.9-.07,3.92,3.92,0,0,0-2.32.9,7.09,7.09,0,0,0-2.11,3.13v11.23Z"/><path d="M508,419.09v-17.5h2.45l.25,2.53h.11a14.21,14.21,0,0,1,2.64-2.11,6.13,6.13,0,0,1,3.23-.85,4.72,4.72,0,0,1,4,1.73A8.56,8.56,0,0,1,522,408v11.09h-3V408.4a6.22,6.22,0,0,0-.79-3.58,2.88,2.88,0,0,0-2.52-1.1,4.35,4.35,0,0,0-2.41.68,15.73,15.73,0,0,0-2.38,2v12.67Z"/><path d="M532.28,419.52a9.56,9.56,0,0,1-3.57-.68,11.08,11.08,0,0,1-3-1.73l1.48-2a11.67,11.67,0,0,0,2.35,1.51,6.36,6.36,0,0,0,2.79.58,3.68,3.68,0,0,0,2.59-.79,2.54,2.54,0,0,0,.87-1.95,2,2,0,0,0-.36-1.19,3.87,3.87,0,0,0-.92-.88,6.67,6.67,0,0,0-1.28-.66l-1.44-.58c-.62-.21-1.24-.46-1.87-.74a7.14,7.14,0,0,1-1.67-1,4.82,4.82,0,0,1-1.21-1.38,3.7,3.7,0,0,1-.47-1.91,4.63,4.63,0,0,1,.42-2,4.5,4.5,0,0,1,1.19-1.59,5.54,5.54,0,0,1,1.89-1,7.83,7.83,0,0,1,2.51-.38,8,8,0,0,1,3,.58,9.41,9.41,0,0,1,2.39,1.4l-1.4,1.87a9.76,9.76,0,0,0-1.88-1.11,5.09,5.09,0,0,0-2.12-.43,3.4,3.4,0,0,0-2.43.75,2.4,2.4,0,0,0-.77,1.77,1.8,1.8,0,0,0,.32,1.06,3,3,0,0,0,.87.79,6.82,6.82,0,0,0,1.24.61l1.46.56c.62.24,1.25.49,1.89.76a7.21,7.21,0,0,1,1.71,1,5,5,0,0,1,1.24,1.45,4.27,4.27,0,0,1,.48,2.09,5,5,0,0,1-.41,2A4.67,4.67,0,0,1,537,418a5.68,5.68,0,0,1-2,1.14A8.64,8.64,0,0,1,532.28,419.52Z"/><path d="M438,467.67a15,15,0,0,1-11-4.32l3.65-5.19a14.61,14.61,0,0,0,2.93,2.07,6.77,6.77,0,0,0,3.21.81,5.17,5.17,0,0,0,3.34-1,4.36,4.36,0,0,0,0-5.92,4.4,4.4,0,0,0-3-1,7.32,7.32,0,0,0-1.11.07,6.11,6.11,0,0,0-.94.22,5.33,5.33,0,0,0-1,.43q-.52.28-1.2.72l-3.55-2.3.77-15.65h18v6.91H437.26l-.38,4.42a7.81,7.81,0,0,1,1.46-.39,10.39,10.39,0,0,1,1.42-.09,12.14,12.14,0,0,1,3.74.57,9,9,0,0,1,3.12,1.73,8.21,8.21,0,0,1,2.14,2.93,10.16,10.16,0,0,1,.79,4.18,10.58,10.58,0,0,1-.94,4.55,9.77,9.77,0,0,1-2.52,3.39,11.07,11.07,0,0,1-3.67,2.09A13.34,13.34,0,0,1,438,467.67Z"/><path d="M453.58,467.09v-4.7c1.79-1.67,3.46-3.23,5-4.71s2.9-2.85,4-4.15a21.54,21.54,0,0,0,2.72-3.7,6.78,6.78,0,0,0,1-3.28,4,4,0,0,0-1-3.05,3.77,3.77,0,0,0-2.71-1,4.42,4.42,0,0,0-2.72.89,24.59,24.59,0,0,0-2.28,2L453.2,441a27.31,27.31,0,0,1,2.35-2.19,12,12,0,0,1,2.42-1.53,11.8,11.8,0,0,1,2.69-.89,15.78,15.78,0,0,1,3.1-.29,11.94,11.94,0,0,1,4.22.72,9.88,9.88,0,0,1,3.31,2,8.82,8.82,0,0,1,2.16,3.14,10.67,10.67,0,0,1,.77,4.11,9.61,9.61,0,0,1-.79,3.72,22.37,22.37,0,0,1-2,3.76,33.86,33.86,0,0,1-2.81,3.65q-1.56,1.79-3.09,3.36c.76-.09,1.63-.18,2.61-.26s1.8-.12,2.47-.12h5.09v6.91Z"/><path d="M486.89,455.19a7.67,7.67,0,0,1-3.21-.68,7.09,7.09,0,0,1-2.57-2,9.48,9.48,0,0,1-1.68-3.15,13.56,13.56,0,0,1-.6-4.2,13.32,13.32,0,0,1,.6-4.17,9.13,9.13,0,0,1,1.68-3.1,7.26,7.26,0,0,1,2.57-1.94,7.67,7.67,0,0,1,3.21-.68,7.59,7.59,0,0,1,3.2.68,7.34,7.34,0,0,1,2.54,1.94,9.34,9.34,0,0,1,1.7,3.1,12.74,12.74,0,0,1,.63,4.17,13,13,0,0,1-.63,4.2,9.69,9.69,0,0,1-1.7,3.15,7.16,7.16,0,0,1-2.54,2A7.59,7.59,0,0,1,486.89,455.19Zm0-4.52a2,2,0,0,0,1.68-1.15,8.94,8.94,0,0,0,.72-4.32,14.53,14.53,0,0,0-.19-2.61,5.69,5.69,0,0,0-.53-1.66,2.11,2.11,0,0,0-.76-.86,1.89,1.89,0,0,0-.92-.24,1.85,1.85,0,0,0-.91.24,2.12,2.12,0,0,0-.77.86,5.7,5.7,0,0,0-.52,1.66,14.42,14.42,0,0,0-.2,2.61,8.94,8.94,0,0,0,.72,4.32A2,2,0,0,0,486.89,450.67Zm1.15,17,16.71-32.36h4.61l-16.71,32.36Zm22.37,0a7.82,7.82,0,0,1-3.21-.67,7.23,7.23,0,0,1-2.57-2,9.38,9.38,0,0,1-1.68-3.15,13.56,13.56,0,0,1-.6-4.2,13.32,13.32,0,0,1,.6-4.17,9.13,9.13,0,0,1,1.68-3.1,7.26,7.26,0,0,1,2.57-1.94,7.67,7.67,0,0,1,3.21-.68,7.56,7.56,0,0,1,3.2.68,7.34,7.34,0,0,1,2.54,1.94,9.34,9.34,0,0,1,1.7,3.1,12.74,12.74,0,0,1,.63,4.17,13,13,0,0,1-.63,4.2,9.59,9.59,0,0,1-1.7,3.15,7.31,7.31,0,0,1-2.54,2A7.71,7.71,0,0,1,510.41,467.67Zm0-4.51a2,2,0,0,0,1.68-1.16,8.94,8.94,0,0,0,.72-4.32,14.46,14.46,0,0,0-.19-2.61,5.69,5.69,0,0,0-.53-1.66,2.11,2.11,0,0,0-.76-.86,1.89,1.89,0,0,0-.92-.24,1.85,1.85,0,0,0-.91.24,2.12,2.12,0,0,0-.77.86,5.7,5.7,0,0,0-.52,1.66,14.34,14.34,0,0,0-.2,2.61,8.94,8.94,0,0,0,.72,4.32A2,2,0,0,0,510.41,463.16Z"/><path d="M235.06,419.09V395.47h3v9.91h11v-9.91h3v23.62h-3V408h-11v11.12Z" style="fill:#fff"/><path d="M263.36,419.52a4.73,4.73,0,0,1-4.09-1.73,8.54,8.54,0,0,1-1.27-5.11V401.59h3v10.7a6.33,6.33,0,0,0,.78,3.58,2.84,2.84,0,0,0,2.5,1.1,4.2,4.2,0,0,0,2.41-.71A10.82,10.82,0,0,0,269,414V401.59h2.95v17.5h-2.45l-.25-2.74h-.11a11.63,11.63,0,0,1-2.57,2.31A5.85,5.85,0,0,1,263.36,419.52Z" style="fill:#fff"/><path d="M277.83,419.09v-17.5h2.45l.25,2.53h.11a12,12,0,0,1,2.5-2.11,5.46,5.46,0,0,1,2.93-.85,5.09,5.09,0,0,1,3.16.88,5.2,5.2,0,0,1,1.67,2.47,14.67,14.67,0,0,1,2.75-2.43,5.38,5.38,0,0,1,3-.92,4.71,4.71,0,0,1,4,1.73A8.34,8.34,0,0,1,302,408v11.09h-3V408.4a6.22,6.22,0,0,0-.79-3.58,2.8,2.8,0,0,0-2.45-1.1q-2,0-4.39,2.7v12.67h-2.95V408.4a6.22,6.22,0,0,0-.79-3.58,2.85,2.85,0,0,0-2.49-1.1q-2,0-4.39,2.7v12.67Z" style="fill:#fff"/><path d="M311.71,419.52a5.31,5.31,0,0,1-3.66-1.29,4.68,4.68,0,0,1-1.46-3.68,4.88,4.88,0,0,1,2.56-4.41c1.7-1,4.43-1.73,8.17-2.14a8,8,0,0,0-.16-1.62,4,4,0,0,0-.56-1.4,2.86,2.86,0,0,0-1.1-1,3.73,3.73,0,0,0-1.78-.38,7,7,0,0,0-2.84.58,13.71,13.71,0,0,0-2.38,1.29l-1.15-2.05a18.79,18.79,0,0,1,3-1.53,10,10,0,0,1,3.89-.74,5.39,5.39,0,0,1,4.64,2,8.68,8.68,0,0,1,1.44,5.24v10.73h-2.45l-.25-2.09h-.11a15.06,15.06,0,0,1-2.7,1.79A6.7,6.7,0,0,1,311.71,419.52Zm.86-2.37a5,5,0,0,0,2.38-.6,11.64,11.64,0,0,0,2.37-1.74V410a30.62,30.62,0,0,0-3.69.68,10,10,0,0,0-2.41.94,3.57,3.57,0,0,0-1.33,1.24,2.94,2.94,0,0,0-.42,1.53,2.48,2.48,0,0,0,.9,2.16A3.69,3.69,0,0,0,312.57,417.15Z" style="fill:#fff"/><path d="M325.82,419.09v-17.5h2.45l.25,2.53h.11a14.21,14.21,0,0,1,2.64-2.11,6.12,6.12,0,0,1,3.22-.85,4.7,4.7,0,0,1,4.05,1.73,8.49,8.49,0,0,1,1.28,5.11v11.09h-2.95V408.4a6.22,6.22,0,0,0-.79-3.58,2.88,2.88,0,0,0-2.52-1.1,4.33,4.33,0,0,0-2.41.68,15.73,15.73,0,0,0-2.38,2v12.67Z" style="fill:#fff"/><path d="M350.08,419.52a9.51,9.51,0,0,1-3.56-.68,11.08,11.08,0,0,1-2.95-1.73l1.47-2a12,12,0,0,0,2.36,1.51,6.29,6.29,0,0,0,2.79.58,3.7,3.7,0,0,0,2.59-.79,2.54,2.54,0,0,0,.87-1.95,2,2,0,0,0-.36-1.19,3.87,3.87,0,0,0-.92-.88,6.67,6.67,0,0,0-1.28-.66l-1.44-.58c-.62-.21-1.25-.46-1.87-.74a7.21,7.21,0,0,1-1.68-1,4.94,4.94,0,0,1-1.2-1.38,3.7,3.7,0,0,1-.47-1.91,4.61,4.61,0,0,1,1.6-3.55,5.74,5.74,0,0,1,1.89-1,8.38,8.38,0,0,1,5.56.2,9.3,9.3,0,0,1,2.4,1.4L354.47,405a9.69,9.69,0,0,0-1.87-1.11,5.12,5.12,0,0,0-2.12-.43,3.37,3.37,0,0,0-2.43.75,2.41,2.41,0,0,0-.78,1.77,1.74,1.74,0,0,0,.33,1.06,3,3,0,0,0,.86.79,7.16,7.16,0,0,0,1.24.61l1.46.56c.63.24,1.26.49,1.89.76a6.84,6.84,0,0,1,1.71,1,4.69,4.69,0,0,1,1.24,1.45,4.17,4.17,0,0,1,.49,2.09,5,5,0,0,1-.41,2,4.79,4.79,0,0,1-1.23,1.65,5.77,5.77,0,0,1-2,1.14A8.7,8.7,0,0,1,350.08,419.52Z" style="fill:#fff"/><path d="M261.85,467.09v-6.82h-13v-5.76l10.37-17.85h10.27V454h3.27v6.23h-3.27v6.82Zm-5.18-13h5.18v-3.46c0-.51,0-1.08,0-1.7s0-1.26.07-1.9.06-1.27.1-1.9.06-1.19.09-1.7H262c-.38.93-.78,1.84-1.2,2.74s-.85,1.8-1.3,2.73Z" style="fill:#fff"/><path d="M286.72,467.67a14.85,14.85,0,0,1-4.3-.6,10.72,10.72,0,0,1-3.45-1.71,7.76,7.76,0,0,1-2.28-2.64,7.07,7.07,0,0,1-.82-3.41,6.5,6.5,0,0,1,1.42-4.36,11.77,11.77,0,0,1,3.57-2.83v-.2a12.53,12.53,0,0,1-2.93-3.09,7.46,7.46,0,0,1-1.1-4.11,8.61,8.61,0,0,1,.74-3.62,7.41,7.41,0,0,1,2.12-2.71,9.87,9.87,0,0,1,3.21-1.71,13.24,13.24,0,0,1,4.11-.6,11.88,11.88,0,0,1,3.86.6,8.92,8.92,0,0,1,3,1.68,7.37,7.37,0,0,1,1.94,2.67,8.48,8.48,0,0,1,.7,3.5,6.32,6.32,0,0,1-1.13,3.72,10,10,0,0,1-2.76,2.67v.19a11.71,11.71,0,0,1,3.75,3.09,7.77,7.77,0,0,1,1.48,4.92,7.35,7.35,0,0,1-.79,3.39,8.19,8.19,0,0,1-2.25,2.71,11,11,0,0,1-3.53,1.8A15.27,15.27,0,0,1,286.72,467.67Zm.19-5.67a3.8,3.8,0,0,0,2.35-.72,2.86,2.86,0,0,0,1-2.45,2.76,2.76,0,0,0-.38-1.44,3.77,3.77,0,0,0-1.13-1.12,12.33,12.33,0,0,0-1.8-1c-.7-.32-1.51-.67-2.4-1a7.64,7.64,0,0,0-1.13,1.89,5.77,5.77,0,0,0-.45,2.23,3.22,3.22,0,0,0,1.2,2.74A4.42,4.42,0,0,0,286.91,462ZM288.54,449a6.64,6.64,0,0,0,1.35-3.84,3.57,3.57,0,0,0-.82-2.48,2.93,2.93,0,0,0-2.26-.88,3,3,0,0,0-1.94.69,2.82,2.82,0,0,0-.84,2.28,2.92,2.92,0,0,0,1.18,2.45A14,14,0,0,0,288.54,449Z" style="fill:#fff"/><path d="M308.89,455.19a7.67,7.67,0,0,1-3.21-.68,7.09,7.09,0,0,1-2.57-2,9.48,9.48,0,0,1-1.68-3.15,13.56,13.56,0,0,1-.6-4.2,13.32,13.32,0,0,1,.6-4.17,9.13,9.13,0,0,1,1.68-3.1,7.26,7.26,0,0,1,2.57-1.94,7.67,7.67,0,0,1,3.21-.68,7.56,7.56,0,0,1,3.2.68,7.34,7.34,0,0,1,2.54,1.94,9.34,9.34,0,0,1,1.7,3.1,12.74,12.74,0,0,1,.63,4.17,13,13,0,0,1-.63,4.2,9.69,9.69,0,0,1-1.7,3.15,7.16,7.16,0,0,1-2.54,2A7.56,7.56,0,0,1,308.89,455.19Zm0-4.52a2,2,0,0,0,1.68-1.15,8.94,8.94,0,0,0,.72-4.32,14.53,14.53,0,0,0-.19-2.61,5.69,5.69,0,0,0-.53-1.66,2.11,2.11,0,0,0-.76-.86,1.89,1.89,0,0,0-.92-.24,1.85,1.85,0,0,0-.91.24,2.12,2.12,0,0,0-.77.86,5.7,5.7,0,0,0-.52,1.66,14.42,14.42,0,0,0-.2,2.61,8.94,8.94,0,0,0,.72,4.32A2,2,0,0,0,308.89,450.67Zm1.16,17,16.7-32.36h4.61l-16.71,32.36Zm22.36,0a7.82,7.82,0,0,1-3.21-.67,7.23,7.23,0,0,1-2.57-2,9.38,9.38,0,0,1-1.68-3.15,13.56,13.56,0,0,1-.6-4.2,13.32,13.32,0,0,1,.6-4.17,9.13,9.13,0,0,1,1.68-3.1,7.26,7.26,0,0,1,2.57-1.94,7.67,7.67,0,0,1,3.21-.68,7.56,7.56,0,0,1,3.2.68,7.34,7.34,0,0,1,2.54,1.94,9.34,9.34,0,0,1,1.7,3.1,12.74,12.74,0,0,1,.63,4.17,13,13,0,0,1-.63,4.2,9.59,9.59,0,0,1-1.7,3.15,7.31,7.31,0,0,1-2.54,2A7.71,7.71,0,0,1,332.41,467.67Zm0-4.51a2,2,0,0,0,1.68-1.16,8.94,8.94,0,0,0,.72-4.32,14.46,14.46,0,0,0-.19-2.61,5.69,5.69,0,0,0-.53-1.66,2.11,2.11,0,0,0-.76-.86,1.89,1.89,0,0,0-.92-.24,1.85,1.85,0,0,0-.91.24,2.12,2.12,0,0,0-.77.86,5.7,5.7,0,0,0-.52,1.66,14.34,14.34,0,0,0-.2,2.61,8.94,8.94,0,0,0,.72,4.32A2,2,0,0,0,332.41,463.16Z" style="fill:#fff"/><path d="M71.59,281.83a6.4,6.4,0,0,1-2.72-.57,6,6,0,0,1-2.13-1.64,7.86,7.86,0,0,1-1.38-2.6,11,11,0,0,1-.49-3.42,10.8,10.8,0,0,1,.49-3.39,7.6,7.6,0,0,1,1.38-2.55,6,6,0,0,1,2.13-1.59,6.55,6.55,0,0,1,2.72-.56,6.4,6.4,0,0,1,2.72.57,6.14,6.14,0,0,1,2.14,1.61,7.31,7.31,0,0,1,1.39,2.54,10.71,10.71,0,0,1,.49,3.37,11,11,0,0,1-.49,3.42,7.7,7.7,0,0,1-1.39,2.6,6.11,6.11,0,0,1-2.14,1.64A6.4,6.4,0,0,1,71.59,281.83Zm0-1.75a4,4,0,0,0,1.91-.45A4.32,4.32,0,0,0,75,278.32a6.41,6.41,0,0,0,1-2,10,10,0,0,0,.34-2.68,9.82,9.82,0,0,0-.34-2.64,6,6,0,0,0-1-2,4.38,4.38,0,0,0-1.46-1.26,4.37,4.37,0,0,0-3.82,0A4.38,4.38,0,0,0,68.22,269a6,6,0,0,0-1,2,9.82,9.82,0,0,0-.34,2.64,10,10,0,0,0,.34,2.68,6.41,6.41,0,0,0,1,2,4.32,4.32,0,0,0,1.46,1.31A4,4,0,0,0,71.59,280.08Z" style="fill:#fff"/><path d="M85.2,281.83a3.8,3.8,0,0,1-1.57-.28,2.79,2.79,0,0,1-1-.8,3.05,3.05,0,0,1-.56-1.22,7.09,7.09,0,0,1-.17-1.58v-6.46H80.13V270l1.83-.12.24-3.26h1.65v3.26H87v1.61H83.85V278a3,3,0,0,0,.4,1.67,1.56,1.56,0,0,0,1.4.59,2.43,2.43,0,0,0,.68-.1,4.37,4.37,0,0,0,.64-.21l.39,1.48a8.77,8.77,0,0,1-1,.3A4.67,4.67,0,0,1,85.2,281.83Z" style="fill:#fff"/><path d="M89.64,281.55V264.46h2v4.65l-.08,2.4a11.61,11.61,0,0,1,1.76-1.35,3.92,3.92,0,0,1,2.13-.57,3.14,3.14,0,0,1,2.7,1.16,5.66,5.66,0,0,1,.85,3.41v7.39H97v-7.13a4.18,4.18,0,0,0-.53-2.39,1.92,1.92,0,0,0-1.68-.73,2.89,2.89,0,0,0-1.61.45,11.12,11.12,0,0,0-1.58,1.35v8.45Z" style="fill:#fff"/><path d="M107.42,281.83a5.88,5.88,0,0,1-2.19-.41,5.21,5.21,0,0,1-1.78-1.21,5.54,5.54,0,0,1-1.19-1.9,7.84,7.84,0,0,1,0-5.15,6,6,0,0,1,1.18-1.93,5.06,5.06,0,0,1,1.67-1.22,4.94,4.94,0,0,1,3.92,0,3.83,3.83,0,0,1,1.47,1.1,5.17,5.17,0,0,1,.9,1.73,7.92,7.92,0,0,1,.31,2.26c0,.21,0,.41,0,.61a3.56,3.56,0,0,1-.06.52h-7.88a4.55,4.55,0,0,0,1.17,3,3.57,3.57,0,0,0,2.72,1.09,4.54,4.54,0,0,0,1.55-.25,7.41,7.41,0,0,0,1.36-.66l.69,1.29a8.68,8.68,0,0,1-1.7.84A6,6,0,0,1,107.42,281.83Zm-3.67-7.05H110a4.14,4.14,0,0,0-.76-2.7,2.57,2.57,0,0,0-2.12-.92,3.19,3.19,0,0,0-1.19.23,3.3,3.3,0,0,0-1,.71,4,4,0,0,0-.75,1.14A5,5,0,0,0,103.75,274.78Z" style="fill:#fff"/><path d="M114.6,281.55V269.88h1.63l.17,2.12h.07a5.33,5.33,0,0,1,1.45-1.76,3,3,0,0,1,1.86-.65,3.28,3.28,0,0,1,1.25.24l-.38,1.73a5.31,5.31,0,0,0-.53-.14,3.28,3.28,0,0,0-.6-.05,2.62,2.62,0,0,0-1.55.6,4.76,4.76,0,0,0-1.4,2.09v7.49Z" style="fill:#fff"/><path d="M130.77,281.83a6.32,6.32,0,0,1-2.37-.45,7.3,7.3,0,0,1-2-1.15l1-1.32a8.5,8.5,0,0,0,1.57,1,4.38,4.38,0,0,0,1.86.38,2.49,2.49,0,0,0,1.73-.53,1.67,1.67,0,0,0,.58-1.3,1.34,1.34,0,0,0-.24-.79,2.64,2.64,0,0,0-.61-.59,5.31,5.31,0,0,0-.86-.44l-1-.38c-.41-.15-.83-.31-1.24-.5a4.62,4.62,0,0,1-1.12-.67,3.18,3.18,0,0,1-.8-.92,2.44,2.44,0,0,1-.32-1.27,3.21,3.21,0,0,1,.28-1.31,3,3,0,0,1,.79-1.06,3.83,3.83,0,0,1,1.26-.69A5.51,5.51,0,0,1,133,270a6.08,6.08,0,0,1,1.6.94l-.94,1.24a6.42,6.42,0,0,0-1.25-.74,3.45,3.45,0,0,0-1.41-.29,2.26,2.26,0,0,0-1.62.5,1.59,1.59,0,0,0-.52,1.18,1.15,1.15,0,0,0,.22.71,2.09,2.09,0,0,0,.57.53,5.84,5.84,0,0,0,.83.41l1,.37,1.26.5a4.87,4.87,0,0,1,1.14.66,3.24,3.24,0,0,1,.83,1,2.77,2.77,0,0,1,.32,1.39,3.39,3.39,0,0,1-.27,1.35,3.24,3.24,0,0,1-.82,1.1,3.88,3.88,0,0,1-1.34.76A5.79,5.79,0,0,1,130.77,281.83Z" style="fill:#fff"/><path d="M137.78,286.47V269.88h1.63l.17,1.35h.07a8.94,8.94,0,0,1,1.74-1.16,4.32,4.32,0,0,1,2-.48,4.62,4.62,0,0,1,2,.42,3.9,3.9,0,0,1,1.44,1.2,5.63,5.63,0,0,1,.88,1.88,9.26,9.26,0,0,1,.3,2.46,8.06,8.06,0,0,1-.41,2.65,6.2,6.2,0,0,1-1.1,2,4.91,4.91,0,0,1-1.61,1.24,4.7,4.7,0,0,1-1.92.41,4,4,0,0,1-1.62-.36,7.37,7.37,0,0,1-1.62-1l.05,2v3.94Zm4.82-6.29a2.8,2.8,0,0,0,1.34-.33,3.13,3.13,0,0,0,1.05-.91,4.35,4.35,0,0,0,.7-1.45,6.81,6.81,0,0,0,.25-1.94,8.69,8.69,0,0,0-.17-1.76,3.9,3.9,0,0,0-.54-1.35,2.61,2.61,0,0,0-1-.88,3,3,0,0,0-1.4-.31,3.14,3.14,0,0,0-1.5.41,8.34,8.34,0,0,0-1.62,1.17V279a5.37,5.37,0,0,0,1.53.94A3.77,3.77,0,0,0,142.6,280.18Z" style="fill:#fff"/><path d="M155.83,281.83a5.9,5.9,0,0,1-2.2-.41,5.17,5.17,0,0,1-1.77-1.21,5.39,5.39,0,0,1-1.19-1.9,7.14,7.14,0,0,1-.43-2.57,7,7,0,0,1,.44-2.58,6,6,0,0,1,1.18-1.93,5,5,0,0,1,1.66-1.22,4.92,4.92,0,0,1,1.95-.42,4.86,4.86,0,0,1,2,.39,3.79,3.79,0,0,1,1.46,1.1,5.17,5.17,0,0,1,.9,1.73,7.58,7.58,0,0,1,.31,2.26c0,.21,0,.41,0,.61a3.56,3.56,0,0,1-.06.52h-7.87a4.59,4.59,0,0,0,1.16,3,3.61,3.61,0,0,0,2.73,1.09,4.58,4.58,0,0,0,1.55-.25,7,7,0,0,0,1.35-.66l.7,1.29a8.5,8.5,0,0,1-1.71.84A5.87,5.87,0,0,1,155.83,281.83Zm-3.67-7.05h6.24a4.2,4.2,0,0,0-.76-2.7,2.57,2.57,0,0,0-2.12-.92,3.15,3.15,0,0,0-1.19.23,3.08,3.08,0,0,0-1,.71,3.85,3.85,0,0,0-.76,1.14A5,5,0,0,0,152.16,274.78Z" style="fill:#fff"/><path d="M167.61,281.83a5.72,5.72,0,0,1-2.16-.4,4.87,4.87,0,0,1-1.74-1.19,5.55,5.55,0,0,1-1.15-1.92,7.43,7.43,0,0,1-.42-2.58,6.87,6.87,0,0,1,.46-2.61,5.94,5.94,0,0,1,1.22-1.93,5.18,5.18,0,0,1,1.79-1.2,5.75,5.75,0,0,1,2.15-.41,4.36,4.36,0,0,1,2,.41,6.57,6.57,0,0,1,1.44,1l-1,1.3a5.76,5.76,0,0,0-1.07-.75,2.77,2.77,0,0,0-1.26-.28,3.29,3.29,0,0,0-1.47.32,3.52,3.52,0,0,0-1.15.92,4.63,4.63,0,0,0-.75,1.43,5.68,5.68,0,0,0-.28,1.84,6.06,6.06,0,0,0,.26,1.82,4.29,4.29,0,0,0,.74,1.41,3.26,3.26,0,0,0,1.14.91,3.36,3.36,0,0,0,1.46.32,3.19,3.19,0,0,0,1.5-.35,5.93,5.93,0,0,0,1.24-.82l.86,1.32a6.5,6.5,0,0,1-1.75,1.09A5.3,5.3,0,0,1,167.61,281.83Z" style="fill:#fff"/><path d="M175,267.48a1.41,1.41,0,0,1-1-.36,1.27,1.27,0,0,1,0-1.83,1.53,1.53,0,0,1,2,0,1.27,1.27,0,0,1,0,1.83A1.4,1.4,0,0,1,175,267.48Zm-1,14.07V269.88h2v11.67Z" style="fill:#fff"/><path d="M184.58,281.83a5.93,5.93,0,0,1-2.2-.41,5.17,5.17,0,0,1-1.77-1.21,5.39,5.39,0,0,1-1.19-1.9,7.84,7.84,0,0,1,0-5.15,6,6,0,0,1,1.18-1.93,5.06,5.06,0,0,1,1.67-1.22,4.94,4.94,0,0,1,3.92,0,3.79,3.79,0,0,1,1.46,1.1,4.83,4.83,0,0,1,.9,1.73,7.57,7.57,0,0,1,.32,2.26c0,.21,0,.41,0,.61a2,2,0,0,1-.06.52h-7.87a4.55,4.55,0,0,0,1.17,3,3.57,3.57,0,0,0,2.72,1.09,4.54,4.54,0,0,0,1.55-.25,7,7,0,0,0,1.35-.66l.7,1.29a8.68,8.68,0,0,1-1.7.84A6,6,0,0,1,184.58,281.83Zm-3.67-7.05h6.24a4.14,4.14,0,0,0-.76-2.7,2.57,2.57,0,0,0-2.12-.92,3.19,3.19,0,0,0-1.19.23,3.08,3.08,0,0,0-1,.71,4.05,4.05,0,0,0-.76,1.14A5,5,0,0,0,180.91,274.78Z" style="fill:#fff"/><path d="M194.8,281.83a6.32,6.32,0,0,1-2.37-.45,7.3,7.3,0,0,1-2-1.15l1-1.32a8.85,8.85,0,0,0,1.57,1,4.4,4.4,0,0,0,1.87.38,2.48,2.48,0,0,0,1.72-.53,1.67,1.67,0,0,0,.58-1.3,1.34,1.34,0,0,0-.24-.79,2.45,2.45,0,0,0-.61-.59,5.64,5.64,0,0,0-.85-.44l-1-.38c-.41-.15-.83-.31-1.24-.5a4.62,4.62,0,0,1-1.12-.67,3.18,3.18,0,0,1-.8-.92,2.44,2.44,0,0,1-.31-1.27,3.2,3.2,0,0,1,.27-1.31,3.17,3.17,0,0,1,.79-1.06,3.83,3.83,0,0,1,1.26-.69,5.2,5.2,0,0,1,1.68-.26,5.14,5.14,0,0,1,2,.39,6.08,6.08,0,0,1,1.6.94l-.94,1.24a6.14,6.14,0,0,0-1.25-.74,3.45,3.45,0,0,0-1.41-.29,2.26,2.26,0,0,0-1.62.5,1.59,1.59,0,0,0-.52,1.18,1.15,1.15,0,0,0,.22.71,2.09,2.09,0,0,0,.57.53,5.84,5.84,0,0,0,.83.41l1,.37,1.26.5a4.87,4.87,0,0,1,1.14.66,3.11,3.11,0,0,1,.83,1,2.78,2.78,0,0,1,.33,1.39,3.4,3.4,0,0,1-.28,1.35,3.11,3.11,0,0,1-.82,1.1,3.88,3.88,0,0,1-1.34.76A5.79,5.79,0,0,1,194.8,281.83Z" style="fill:#fff"/><path d="M97.86,314.16v-5l5.83-1.8,4.9-1.65v-.15l-4.9-1.65-5.83-1.8v-5l17,6.48v4.17Z" style="fill:#fff"/><path d="M118.45,317.55v-5h4.9V300.77H119V297a23.63,23.63,0,0,0,3.31-.91,13,13,0,0,0,2.66-1.33h4.54v17.86h4.1v5Z" style="fill:#fff"/><path d="M142.35,308.62a5.88,5.88,0,0,1-2.41-.5,5.4,5.4,0,0,1-1.92-1.48,7,7,0,0,1-1.26-2.36,9.86,9.86,0,0,1-.45-3.15,9.73,9.73,0,0,1,.45-3.13,6.8,6.8,0,0,1,1.26-2.32,5.46,5.46,0,0,1,1.92-1.46,5.72,5.72,0,0,1,2.41-.51,5.65,5.65,0,0,1,2.4.51,5.51,5.51,0,0,1,1.91,1.46,7,7,0,0,1,1.27,2.32,9.72,9.72,0,0,1,.47,3.13,9.84,9.84,0,0,1-.47,3.15,7.19,7.19,0,0,1-1.27,2.36,5.45,5.45,0,0,1-1.91,1.48A5.79,5.79,0,0,1,142.35,308.62Zm0-3.38a1.52,1.52,0,0,0,1.26-.87,6.72,6.72,0,0,0,.54-3.24,11.71,11.71,0,0,0-.14-2,4.3,4.3,0,0,0-.4-1.24,1.62,1.62,0,0,0-.57-.65,1.42,1.42,0,0,0-.69-.18,1.38,1.38,0,0,0-.68.18,1.56,1.56,0,0,0-.58.65,4,4,0,0,0-.39,1.24,10.62,10.62,0,0,0-.15,2,6.72,6.72,0,0,0,.54,3.24A1.52,1.52,0,0,0,142.35,305.24Zm.87,12.74,12.53-24.27h3.45L146.67,318ZM160,318a5.72,5.72,0,0,1-2.41-.51,5.26,5.26,0,0,1-1.92-1.47,6.83,6.83,0,0,1-1.26-2.36,9.86,9.86,0,0,1-.45-3.15,9.73,9.73,0,0,1,.45-3.13,6.63,6.63,0,0,1,1.26-2.32,5.46,5.46,0,0,1,1.92-1.46,5.72,5.72,0,0,1,2.41-.5,5.64,5.64,0,0,1,2.4.5A5.51,5.51,0,0,1,164.3,305a7.17,7.17,0,0,1,1.27,2.32,9.72,9.72,0,0,1,.47,3.13,9.84,9.84,0,0,1-.47,3.15A7.38,7.38,0,0,1,164.3,316a5.31,5.31,0,0,1-1.91,1.47A5.65,5.65,0,0,1,160,318Zm0-3.39a1.51,1.51,0,0,0,1.26-.86,6.67,6.67,0,0,0,.54-3.24,11.62,11.62,0,0,0-.14-2,4.3,4.3,0,0,0-.4-1.24,1.62,1.62,0,0,0-.57-.65,1.42,1.42,0,0,0-.69-.18,1.38,1.38,0,0,0-.68.18,1.56,1.56,0,0,0-.58.65,4,4,0,0,0-.39,1.24,10.55,10.55,0,0,0-.15,2,6.67,6.67,0,0,0,.54,3.24A1.51,1.51,0,0,0,160,314.59Z" style="fill:#fff"/><line x1="203" y1="302" x2="381.5" y2="302" style="fill:none;stroke:#fff;stroke-miterlimit:10;stroke-width:3px"/><path d="M497.16,204.89a13.13,13.13,0,0,1-1.36-2.95,12,12,0,0,1,0-6.8,13.41,13.41,0,0,1,1.36-3l.71.33a11.07,11.07,0,0,0-1.21,2.88,12.56,12.56,0,0,0,0,6.29,10.86,10.86,0,0,0,1.21,2.87Z" style="fill:#fff"/><path d="M500.14,194.22a.84.84,0,0,1-.57-.21.69.69,0,0,1-.23-.53.71.71,0,0,1,.23-.54.88.88,0,0,1,.57-.2.86.86,0,0,1,.57.2.71.71,0,0,1,.23.54.69.69,0,0,1-.23.53A.82.82,0,0,1,500.14,194.22Zm-.59,8.21v-6.81h1.15v6.81Z" style="fill:#fff"/><path d="M503,202.43v-6.81H504l.1,1h0a5,5,0,0,1,1-.82,2.1,2.1,0,0,1,1.14-.33,2,2,0,0,1,1.23.35,2,2,0,0,1,.65,1,5.41,5.41,0,0,1,1.07-.95,2.07,2.07,0,0,1,1.17-.36,1.83,1.83,0,0,1,1.56.68,3.24,3.24,0,0,1,.51,2v4.31h-1.15v-4.16a2.45,2.45,0,0,0-.3-1.39,1.1,1.1,0,0,0-1-.43,2.51,2.51,0,0,0-1.7,1.05v4.93h-1.15v-4.16a2.44,2.44,0,0,0-.31-1.39,1.11,1.11,0,0,0-1-.43,2.54,2.54,0,0,0-1.71,1.05v4.93Z" style="fill:#fff"/><path d="M514.6,202.43v-6.81h.95l.1,1h.05a4.69,4.69,0,0,1,1-.82,2.1,2.1,0,0,1,1.14-.33,1.93,1.93,0,0,1,1.22.35,2,2,0,0,1,.66,1,5.41,5.41,0,0,1,1.07-.95,2,2,0,0,1,1.17-.36,1.85,1.85,0,0,1,1.56.68,3.24,3.24,0,0,1,.51,2v4.31h-1.15v-4.16a2.36,2.36,0,0,0-.31-1.39,1.07,1.07,0,0,0-.95-.43,2.54,2.54,0,0,0-1.71,1.05v4.93h-1.15v-4.16a2.45,2.45,0,0,0-.3-1.39,1.11,1.11,0,0,0-1-.43,2.54,2.54,0,0,0-1.71,1.05v4.93Z" style="fill:#fff"/><path d="M529,202.59a3.35,3.35,0,0,1-1.28-.24,3,3,0,0,1-1-.7,3.12,3.12,0,0,1-.69-1.11,4.14,4.14,0,0,1-.25-1.5,4.23,4.23,0,0,1,.25-1.51,3.66,3.66,0,0,1,.69-1.12,2.89,2.89,0,0,1,1-.71,2.86,2.86,0,0,1,1.14-.25,2.81,2.81,0,0,1,1.15.23,2.29,2.29,0,0,1,.86.64,3.11,3.11,0,0,1,.52,1,4.48,4.48,0,0,1,.18,1.32V199a2,2,0,0,1,0,.3h-4.59a2.64,2.64,0,0,0,.68,1.73,2.07,2.07,0,0,0,1.59.64,2.66,2.66,0,0,0,.9-.15,3.38,3.38,0,0,0,.79-.38l.41.75a4.89,4.89,0,0,1-1,.49A3.43,3.43,0,0,1,529,202.59Zm-2.14-4.11h3.63a2.42,2.42,0,0,0-.44-1.58,1.49,1.49,0,0,0-1.23-.54,1.82,1.82,0,0,0-.7.14,1.87,1.87,0,0,0-.59.42,2.06,2.06,0,0,0-.44.66A2.7,2.7,0,0,0,526.83,198.48Z" style="fill:#fff"/><path d="M535.48,202.59a2.49,2.49,0,0,1-2.05-.92,4,4,0,0,1-.77-2.63,4.12,4.12,0,0,1,.25-1.49,3.46,3.46,0,0,1,.65-1.13,2.82,2.82,0,0,1,.94-.71,2.52,2.52,0,0,1,1.12-.26,2.32,2.32,0,0,1,1,.21,4.75,4.75,0,0,1,.88.58l-.06-1.16v-2.62h1.17v10h-1l-.09-.8h0a4.61,4.61,0,0,1-.94.68A2.3,2.3,0,0,1,535.48,202.59Zm.25-1a1.84,1.84,0,0,0,.89-.23,3.15,3.15,0,0,0,.84-.71v-3.56a2.77,2.77,0,0,0-.83-.55,2.1,2.1,0,0,0-.82-.16,1.56,1.56,0,0,0-.76.19,1.85,1.85,0,0,0-.62.53,2.54,2.54,0,0,0-.42.82,3.23,3.23,0,0,0-.16,1.06,3.28,3.28,0,0,0,.49,1.92A1.61,1.61,0,0,0,535.73,201.63Z" style="fill:#fff"/><path d="M541.51,194.22a.84.84,0,0,1-.57-.21.69.69,0,0,1-.23-.53.71.71,0,0,1,.23-.54.91.91,0,0,1,1.14,0,.71.71,0,0,1,.23.54.69.69,0,0,1-.23.53A.84.84,0,0,1,541.51,194.22Zm-.59,8.21v-6.81h1.15v6.81Z" style="fill:#fff"/><path d="M545.93,202.59a2.06,2.06,0,0,1-1.42-.5,1.84,1.84,0,0,1-.56-1.43,1.88,1.88,0,0,1,1-1.71,8,8,0,0,1,3.18-.83,3.39,3.39,0,0,0-.06-.64,1.86,1.86,0,0,0-.22-.54,1.16,1.16,0,0,0-.43-.39,1.54,1.54,0,0,0-.69-.14,2.78,2.78,0,0,0-1.11.22,6.12,6.12,0,0,0-.92.5l-.45-.79a7.32,7.32,0,0,1,1.16-.6,3.91,3.91,0,0,1,1.51-.29,2.08,2.08,0,0,1,1.81.77,3.39,3.39,0,0,1,.56,2v4.18h-.95l-.1-.81h0a5.94,5.94,0,0,1-1.05.69A2.63,2.63,0,0,1,545.93,202.59Zm.34-.92a2,2,0,0,0,.93-.23,4.78,4.78,0,0,0,.92-.68v-1.89a11.34,11.34,0,0,0-1.44.27,3.61,3.61,0,0,0-.93.36,1.36,1.36,0,0,0-.52.48,1.15,1.15,0,0,0-.16.6,1,1,0,0,0,.35.84A1.38,1.38,0,0,0,546.27,201.67Z" style="fill:#fff"/><path d="M553.37,202.59a2.26,2.26,0,0,1-.92-.16,1.66,1.66,0,0,1-.6-.47,1.87,1.87,0,0,1-.33-.71,4.4,4.4,0,0,1-.1-.92v-3.77h-1v-.87l1.06-.07.14-1.9h1v1.9h1.84v.94h-1.84v3.78a1.67,1.67,0,0,0,.24,1,.9.9,0,0,0,.81.35,1.44,1.44,0,0,0,.4-.06l.38-.13.22.87a4.87,4.87,0,0,1-.61.18A2.94,2.94,0,0,1,553.37,202.59Z" style="fill:#fff"/><path d="M558.52,202.59a3.39,3.39,0,0,1-1.28-.24,3.08,3.08,0,0,1-1-.7,3.27,3.27,0,0,1-.69-1.11,4.14,4.14,0,0,1-.25-1.5,4.23,4.23,0,0,1,.26-1.51,3.46,3.46,0,0,1,.68-1.12,2.93,2.93,0,0,1,1-.71,2.77,2.77,0,0,1,1.13-.25,2.89,2.89,0,0,1,1.16.23,2.25,2.25,0,0,1,.85.64,3.13,3.13,0,0,1,.53,1,4.48,4.48,0,0,1,.18,1.32c0,.12,0,.24,0,.35a2.16,2.16,0,0,1,0,.3h-4.6a2.69,2.69,0,0,0,.68,1.73,2.09,2.09,0,0,0,1.59.64,2.57,2.57,0,0,0,.9-.15,3.65,3.65,0,0,0,.8-.38l.4.75a5.07,5.07,0,0,1-1,.49A3.49,3.49,0,0,1,558.52,202.59Zm-2.14-4.11H560a2.48,2.48,0,0,0-.44-1.58,1.52,1.52,0,0,0-1.24-.54,1.81,1.81,0,0,0-.69.14,2,2,0,0,0-.6.42,2.24,2.24,0,0,0-.44.66A3,3,0,0,0,556.38,198.48Z" style="fill:#fff"/><path d="M563.93,202.59a1.07,1.07,0,0,1-.94-.39,1.93,1.93,0,0,1-.28-1.15v-8.59h1.15v8.68a.62.62,0,0,0,.09.39.28.28,0,0,0,.23.11h.1l.15,0,.15.86a.88.88,0,0,1-.26.09Z" style="fill:#fff"/><path d="M566.39,205.35a2.81,2.81,0,0,1-.43,0,1.79,1.79,0,0,1-.37-.11l.22-.91.26.07.26,0a1.25,1.25,0,0,0,1-.41,2.87,2.87,0,0,0,.58-1.05l.16-.5-2.73-6.82h1.19l1.38,3.77c.11.3.21.61.33.94s.23.66.33,1h.06c.1-.31.2-.63.29-1s.19-.65.28-1l1.22-3.77h1.12L568.94,203a7.24,7.24,0,0,1-.41.93,3.24,3.24,0,0,1-.53.75,2.43,2.43,0,0,1-.7.5A2.17,2.17,0,0,1,566.39,205.35Z" style="fill:#fff"/><path d="M577.18,202.59a2,2,0,0,1-1.42-.5,1.8,1.8,0,0,1-.56-1.43,1.88,1.88,0,0,1,1-1.71,8,8,0,0,1,3.18-.83,2.73,2.73,0,0,0-.07-.64,1.6,1.6,0,0,0-.21-.54,1.24,1.24,0,0,0-.43-.39,1.54,1.54,0,0,0-.69-.14,2.75,2.75,0,0,0-1.11.22,6.12,6.12,0,0,0-.92.5l-.45-.79a6.91,6.91,0,0,1,1.16-.6,3.91,3.91,0,0,1,1.51-.29,2.1,2.1,0,0,1,1.81.77,3.39,3.39,0,0,1,.56,2v4.18h-.95l-.1-.81h0a5.94,5.94,0,0,1-1.05.69A2.66,2.66,0,0,1,577.18,202.59Zm.34-.92a2,2,0,0,0,.92-.23,4.53,4.53,0,0,0,.93-.68v-1.89a11.34,11.34,0,0,0-1.44.27,3.7,3.7,0,0,0-.94.36,1.4,1.4,0,0,0-.51.48,1.16,1.16,0,0,0-.17.6,1,1,0,0,0,.36.84A1.38,1.38,0,0,0,577.52,201.67Z" style="fill:#fff"/><path d="M582.87,202.43v-5.87h-.93v-.87l.93-.07v-1.08a2.57,2.57,0,0,1,.48-1.65,1.81,1.81,0,0,1,1.51-.6,2.91,2.91,0,0,1,.6.06,4.83,4.83,0,0,1,.53.16l-.25.89a1.79,1.79,0,0,0-.77-.17c-.64,0-1,.44-1,1.31v1.08h2.49l.14-1.9h1v1.9h1.85v.94H587.6v3.78a1.67,1.67,0,0,0,.24,1,.93.93,0,0,0,.82.35,1.37,1.37,0,0,0,.39-.06,2.39,2.39,0,0,0,.38-.13l.23.87a4.87,4.87,0,0,1-.61.18,2.94,2.94,0,0,1-.65.07,2.26,2.26,0,0,1-.92-.16,1.58,1.58,0,0,1-.6-.47,1.61,1.61,0,0,1-.33-.71,3.82,3.82,0,0,1-.1-.92v-3.77H584v5.87Z" style="fill:#fff"/><path d="M593.55,202.59a3.35,3.35,0,0,1-1.28-.24,3.08,3.08,0,0,1-1-.7,3.27,3.27,0,0,1-.69-1.11,4.14,4.14,0,0,1-.25-1.5,4.23,4.23,0,0,1,.25-1.51,3.66,3.66,0,0,1,.69-1.12,2.93,2.93,0,0,1,1-.71,2.77,2.77,0,0,1,1.13-.25,2.81,2.81,0,0,1,1.15.23,2.29,2.29,0,0,1,.86.64,2.93,2.93,0,0,1,.52,1,4.48,4.48,0,0,1,.18,1.32V199a2,2,0,0,1,0,.3h-4.59a2.64,2.64,0,0,0,.68,1.73,2.09,2.09,0,0,0,1.59.64,2.57,2.57,0,0,0,.9-.15,3.38,3.38,0,0,0,.79-.38l.41.75a4.89,4.89,0,0,1-1,.49A3.39,3.39,0,0,1,593.55,202.59Zm-2.14-4.11h3.64a2.48,2.48,0,0,0-.44-1.58,1.52,1.52,0,0,0-1.24-.54,1.82,1.82,0,0,0-.7.14,2,2,0,0,0-.59.42,2.06,2.06,0,0,0-.44.66A2.7,2.7,0,0,0,591.41,198.48Z" style="fill:#fff"/><path d="M597.73,202.43v-6.81h1l.1,1.23h0a3.17,3.17,0,0,1,.84-1,1.78,1.78,0,0,1,1.09-.38,1.9,1.9,0,0,1,.73.14l-.23,1-.3-.08a1.86,1.86,0,0,0-.36,0,1.53,1.53,0,0,0-.9.35,2.85,2.85,0,0,0-.82,1.22v4.37Z" style="fill:#fff"/><path d="M607.53,202.59a2.21,2.21,0,0,1-.91-.16,1.58,1.58,0,0,1-.6-.47,1.61,1.61,0,0,1-.33-.71,3.82,3.82,0,0,1-.1-.92v-3.77h-1v-.87l1.06-.07.14-1.9h1v1.9h1.83v.94h-1.83v3.78a1.76,1.76,0,0,0,.23,1,.91.91,0,0,0,.82.35,1.43,1.43,0,0,0,.39-.06,2.8,2.8,0,0,0,.38-.13l.22.87a4.71,4.71,0,0,1-.6.18A3,3,0,0,1,607.53,202.59Z" style="fill:#fff"/><path d="M610.12,202.43v-10h1.15v2.71l0,1.4a7.36,7.36,0,0,1,1-.79,2.33,2.33,0,0,1,1.25-.33,1.82,1.82,0,0,1,1.57.68,3.31,3.31,0,0,1,.5,2v4.31h-1.15v-4.16a2.36,2.36,0,0,0-.31-1.39,1.11,1.11,0,0,0-1-.43,1.71,1.71,0,0,0-.93.26,6.33,6.33,0,0,0-.93.79v4.93Z" style="fill:#fff"/><path d="M620.5,202.59a3.35,3.35,0,0,1-1.28-.24,3.08,3.08,0,0,1-1-.7,3.27,3.27,0,0,1-.69-1.11,4.14,4.14,0,0,1-.25-1.5,4,4,0,0,1,.26-1.51,3.46,3.46,0,0,1,.68-1.12,3,3,0,0,1,1-.71,2.86,2.86,0,0,1,1.14-.25,2.81,2.81,0,0,1,1.15.23,2.29,2.29,0,0,1,.86.64,2.93,2.93,0,0,1,.52,1,4.48,4.48,0,0,1,.18,1.32V199a2,2,0,0,1,0,.3h-4.59a2.64,2.64,0,0,0,.68,1.73,2.09,2.09,0,0,0,1.59.64,2.57,2.57,0,0,0,.9-.15,3.38,3.38,0,0,0,.79-.38l.41.75a5.07,5.07,0,0,1-1,.49A3.49,3.49,0,0,1,620.5,202.59Zm-2.14-4.11H622a2.48,2.48,0,0,0-.44-1.58,1.52,1.52,0,0,0-1.24-.54,1.82,1.82,0,0,0-.7.14,2,2,0,0,0-.59.42,2.06,2.06,0,0,0-.44.66A2.7,2.7,0,0,0,618.36,198.48Z" style="fill:#fff"/><path d="M628.7,202.59a1.08,1.08,0,0,1-.94-.39,2,2,0,0,1-.28-1.15v-8.59h1.15v8.68a.55.55,0,0,0,.1.39.26.26,0,0,0,.22.11h.11l.15,0,.15.86a.85.85,0,0,1-.27.09Z" style="fill:#fff"/><path d="M631.64,194.22a.79.79,0,0,1-.56-.21.66.66,0,0,1-.24-.53.68.68,0,0,1,.24-.54.9.9,0,0,1,1.13,0,.71.71,0,0,1,.23.54.69.69,0,0,1-.23.53A.8.8,0,0,1,631.64,194.22Zm-.59,8.21v-6.81h1.15v6.81Z" style="fill:#fff"/><path d="M636,202.43l-2.45-6.81h1.19l1.29,3.87c.1.33.2.67.31,1s.21.66.32,1h0c.1-.33.21-.66.31-1s.2-.68.31-1l1.29-3.87h1.13l-2.41,6.81Z" style="fill:#fff"/><path d="M643.74,202.59a3.35,3.35,0,0,1-1.28-.24,3,3,0,0,1-1-.7,3.27,3.27,0,0,1-.69-1.11,4.14,4.14,0,0,1-.25-1.5,4,4,0,0,1,.26-1.51,3.46,3.46,0,0,1,.68-1.12,3,3,0,0,1,1-.71,2.86,2.86,0,0,1,1.14-.25,2.81,2.81,0,0,1,1.15.23,2.29,2.29,0,0,1,.86.64,2.93,2.93,0,0,1,.52,1,4.48,4.48,0,0,1,.18,1.32V199a2,2,0,0,1,0,.3h-4.59a2.64,2.64,0,0,0,.68,1.73,2.08,2.08,0,0,0,1.59.64,2.57,2.57,0,0,0,.9-.15,3.38,3.38,0,0,0,.79-.38l.41.75a4.89,4.89,0,0,1-1,.49A3.39,3.39,0,0,1,643.74,202.59Zm-2.14-4.11h3.64a2.42,2.42,0,0,0-.45-1.58,1.49,1.49,0,0,0-1.23-.54,1.82,1.82,0,0,0-.7.14,2,2,0,0,0-.59.42,2.06,2.06,0,0,0-.44.66A2.7,2.7,0,0,0,641.6,198.48Z" style="fill:#fff"/><path d="M653.05,202.59a2.49,2.49,0,0,1-2-.92,4,4,0,0,1-.77-2.63,4.12,4.12,0,0,1,.25-1.49,3.46,3.46,0,0,1,.65-1.13,2.82,2.82,0,0,1,.94-.71,2.52,2.52,0,0,1,1.12-.26,2.32,2.32,0,0,1,1,.21,4.75,4.75,0,0,1,.88.58l-.05-1.16v-2.62h1.16v10h-1l-.1-.8h0a4.61,4.61,0,0,1-.94.68A2.3,2.3,0,0,1,653.05,202.59Zm.25-1a1.88,1.88,0,0,0,.9-.23,3.49,3.49,0,0,0,.84-.71v-3.56a2.94,2.94,0,0,0-.84-.55,2.1,2.1,0,0,0-.82-.16,1.56,1.56,0,0,0-.76.19,1.85,1.85,0,0,0-.62.53,2.54,2.54,0,0,0-.42.82,3.23,3.23,0,0,0-.16,1.06,3.28,3.28,0,0,0,.49,1.92A1.61,1.61,0,0,0,653.3,201.63Z" style="fill:#fff"/><path d="M661.25,202.59a3.39,3.39,0,0,1-1.28-.24,3.08,3.08,0,0,1-1-.7,3.27,3.27,0,0,1-.69-1.11A4.14,4.14,0,0,1,658,199a4.23,4.23,0,0,1,.26-1.51,3.46,3.46,0,0,1,.68-1.12,2.93,2.93,0,0,1,1-.71,2.77,2.77,0,0,1,1.13-.25,2.89,2.89,0,0,1,1.16.23,2.25,2.25,0,0,1,.85.64,3.13,3.13,0,0,1,.53,1,4.48,4.48,0,0,1,.18,1.32c0,.12,0,.24,0,.35a1.21,1.21,0,0,1,0,.3h-4.59a2.69,2.69,0,0,0,.68,1.73,2.09,2.09,0,0,0,1.59.64,2.57,2.57,0,0,0,.9-.15,3.38,3.38,0,0,0,.79-.38l.41.75a5.07,5.07,0,0,1-1,.49A3.49,3.49,0,0,1,661.25,202.59Zm-2.14-4.11h3.64a2.48,2.48,0,0,0-.44-1.58,1.52,1.52,0,0,0-1.24-.54,1.77,1.77,0,0,0-.69.14,2,2,0,0,0-.6.42,2.24,2.24,0,0,0-.44.66A3,3,0,0,0,659.11,198.48Z" style="fill:#fff"/><path d="M668.45,202.59a2.3,2.3,0,0,1-1-.23,3.62,3.62,0,0,1-1-.63h0l-.1.7h-.92v-10h1.14v2.71l0,1.24a4.53,4.53,0,0,1,1-.68,2.54,2.54,0,0,1,1.12-.28,2.72,2.72,0,0,1,1.17.25,2.35,2.35,0,0,1,.84.7,3.24,3.24,0,0,1,.52,1.09,5.26,5.26,0,0,1,.18,1.42,4.73,4.73,0,0,1-.24,1.56,3.72,3.72,0,0,1-.65,1.16,2.66,2.66,0,0,1-.93.72A2.72,2.72,0,0,1,668.45,202.59Zm-.2-1a1.61,1.61,0,0,0,.78-.19,1.92,1.92,0,0,0,.61-.53,2.49,2.49,0,0,0,.41-.85,4,4,0,0,0,.15-1.13,5.37,5.37,0,0,0-.1-1,2.34,2.34,0,0,0-.32-.79,1.45,1.45,0,0,0-.56-.51,1.74,1.74,0,0,0-.82-.18,2.87,2.87,0,0,0-1.82.92v3.58a3,3,0,0,0,.89.55A2.3,2.3,0,0,0,668.25,201.63Z" style="fill:#fff"/><path d="M674.55,202.59a2,2,0,0,1-1.42-.5,1.81,1.81,0,0,1-.57-1.43,1.87,1.87,0,0,1,1-1.71,8,8,0,0,1,3.17-.83,3.39,3.39,0,0,0-.06-.64,1.43,1.43,0,0,0-.22-.54,1.13,1.13,0,0,0-.42-.39,1.62,1.62,0,0,0-.7-.14,2.7,2.7,0,0,0-1.1.22,5.78,5.78,0,0,0-.93.5l-.44-.79a6.54,6.54,0,0,1,1.16-.6,3.91,3.91,0,0,1,1.51-.29,2.11,2.11,0,0,1,1.81.77,3.39,3.39,0,0,1,.56,2v4.18h-1l-.09-.81h-.05a5.29,5.29,0,0,1-1,.69A2.58,2.58,0,0,1,674.55,202.59Zm.34-.92a2,2,0,0,0,.92-.23,4.24,4.24,0,0,0,.92-.68v-1.89a11.5,11.5,0,0,0-1.43.27,3.7,3.7,0,0,0-.94.36,1.43,1.43,0,0,0-.52.48,1.25,1.25,0,0,0-.16.6,1,1,0,0,0,.35.84A1.43,1.43,0,0,0,674.89,201.67Z" style="fill:#fff"/><path d="M682,202.59a2.21,2.21,0,0,1-.91-.16,1.58,1.58,0,0,1-.6-.47,1.61,1.61,0,0,1-.33-.71,3.82,3.82,0,0,1-.1-.92v-3.77h-1v-.87l1.06-.07.14-1.9h1v1.9H683v.94H681.2v3.78a1.76,1.76,0,0,0,.23,1,.91.91,0,0,0,.82.35,1.43,1.43,0,0,0,.39-.06,2.8,2.8,0,0,0,.38-.13l.22.87a4.71,4.71,0,0,1-.6.18A3,3,0,0,1,682,202.59Z" style="fill:#fff"/><path d="M687.14,202.59a3.35,3.35,0,0,1-1.28-.24,3,3,0,0,1-1-.7,3.12,3.12,0,0,1-.69-1.11,4.14,4.14,0,0,1-.26-1.5,4.23,4.23,0,0,1,.26-1.51,3.48,3.48,0,0,1,.69-1.12,2.89,2.89,0,0,1,1-.71,2.85,2.85,0,0,1,2.29,0,2.29,2.29,0,0,1,.86.64,3.11,3.11,0,0,1,.52,1,4.48,4.48,0,0,1,.18,1.32V199a2,2,0,0,1,0,.3H685a2.59,2.59,0,0,0,.68,1.73,2.07,2.07,0,0,0,1.59.64,2.66,2.66,0,0,0,.9-.15,3.38,3.38,0,0,0,.79-.38l.41.75a4.89,4.89,0,0,1-1,.49A3.43,3.43,0,0,1,687.14,202.59ZM685,198.48h3.64a2.42,2.42,0,0,0-.44-1.58,1.5,1.5,0,0,0-1.24-.54,1.81,1.81,0,0,0-.69.14,1.87,1.87,0,0,0-.59.42,2.06,2.06,0,0,0-.44.66A3,3,0,0,0,685,198.48Z" style="fill:#fff"/><path d="M696.88,202.59a3.39,3.39,0,0,1-1.28-.24,3.08,3.08,0,0,1-1-.7,3.27,3.27,0,0,1-.69-1.11,4.14,4.14,0,0,1-.25-1.5,4,4,0,0,1,.26-1.51,3.46,3.46,0,0,1,.68-1.12,2.93,2.93,0,0,1,1-.71,2.77,2.77,0,0,1,1.13-.25,2.81,2.81,0,0,1,1.15.23,2.21,2.21,0,0,1,.86.64,2.93,2.93,0,0,1,.52,1,4.17,4.17,0,0,1,.19,1.32c0,.12,0,.24,0,.35a2,2,0,0,1,0,.3h-4.59a2.64,2.64,0,0,0,.68,1.73,2.09,2.09,0,0,0,1.59.64,2.57,2.57,0,0,0,.9-.15,3.38,3.38,0,0,0,.79-.38l.41.75a5.07,5.07,0,0,1-1,.49A3.49,3.49,0,0,1,696.88,202.59Zm-2.14-4.11h3.64a2.48,2.48,0,0,0-.44-1.58,1.52,1.52,0,0,0-1.24-.54,1.86,1.86,0,0,0-.7.14,2.13,2.13,0,0,0-.59.42,2.06,2.06,0,0,0-.44.66A2.7,2.7,0,0,0,694.74,198.48Z" style="fill:#fff"/><path d="M701.07,202.43v-6.81H702l.1,1h0a5.62,5.62,0,0,1,1-.82,2.31,2.31,0,0,1,1.25-.33,1.82,1.82,0,0,1,1.57.68,3.31,3.31,0,0,1,.5,2v4.31h-1.15v-4.16a2.36,2.36,0,0,0-.31-1.39,1.1,1.1,0,0,0-1-.43,1.72,1.72,0,0,0-.94.26,6.33,6.33,0,0,0-.93.79v4.93Z" style="fill:#fff"/><path d="M711.05,202.59a2.49,2.49,0,0,1-2-.92,4,4,0,0,1-.77-2.63,4.12,4.12,0,0,1,.25-1.49,3.46,3.46,0,0,1,.65-1.13,2.82,2.82,0,0,1,.94-.71,2.52,2.52,0,0,1,1.12-.26,2.32,2.32,0,0,1,1,.21,4.75,4.75,0,0,1,.88.58l-.05-1.16v-2.62h1.16v10h-1l-.1-.8h0a4.61,4.61,0,0,1-.94.68A2.3,2.3,0,0,1,711.05,202.59Zm.25-1a1.88,1.88,0,0,0,.9-.23,3.49,3.49,0,0,0,.84-.71v-3.56a2.94,2.94,0,0,0-.84-.55,2.1,2.1,0,0,0-.82-.16,1.56,1.56,0,0,0-.76.19,1.85,1.85,0,0,0-.62.53,2.54,2.54,0,0,0-.42.82,3.23,3.23,0,0,0-.16,1.06,3.28,3.28,0,0,0,.49,1.92A1.61,1.61,0,0,0,711.3,201.63Z" style="fill:#fff"/><path d="M719.25,202.59a3.39,3.39,0,0,1-1.28-.24,3.08,3.08,0,0,1-1-.7,3.27,3.27,0,0,1-.69-1.11A4.14,4.14,0,0,1,716,199a4.23,4.23,0,0,1,.26-1.51,3.46,3.46,0,0,1,.68-1.12,2.93,2.93,0,0,1,1-.71,2.77,2.77,0,0,1,1.13-.25,2.89,2.89,0,0,1,1.16.23,2.25,2.25,0,0,1,.85.64,3.13,3.13,0,0,1,.53,1,4.48,4.48,0,0,1,.18,1.32c0,.12,0,.24,0,.35a1.21,1.21,0,0,1,0,.3h-4.59a2.69,2.69,0,0,0,.68,1.73,2.09,2.09,0,0,0,1.59.64,2.57,2.57,0,0,0,.9-.15,3.38,3.38,0,0,0,.79-.38l.41.75a5.07,5.07,0,0,1-1,.49A3.49,3.49,0,0,1,719.25,202.59Zm-2.14-4.11h3.64a2.48,2.48,0,0,0-.44-1.58,1.52,1.52,0,0,0-1.24-.54,1.77,1.77,0,0,0-.69.14,2,2,0,0,0-.6.42,2.24,2.24,0,0,0-.44.66A3,3,0,0,0,717.11,198.48Z" style="fill:#fff"/><path d="M725.76,202.59a2.51,2.51,0,0,1-2-.92A4,4,0,0,1,723,199a4.35,4.35,0,0,1,.24-1.49,3.46,3.46,0,0,1,.65-1.13,2.82,2.82,0,0,1,.94-.71,2.56,2.56,0,0,1,1.12-.26,2.32,2.32,0,0,1,1,.21,4.75,4.75,0,0,1,.88.58l0-1.16v-2.62h1.16v10H728l-.1-.8h0a4.28,4.28,0,0,1-.93.68A2.34,2.34,0,0,1,725.76,202.59Zm.25-1a1.88,1.88,0,0,0,.9-.23,3.31,3.31,0,0,0,.84-.71v-3.56a3,3,0,0,0-.83-.55,2.14,2.14,0,0,0-.82-.16,1.6,1.6,0,0,0-.77.19,2,2,0,0,0-.62.53,2.54,2.54,0,0,0-.42.82,3.53,3.53,0,0,0-.15,1.06,3.21,3.21,0,0,0,.49,1.92A1.59,1.59,0,0,0,726,201.63Z" style="fill:#fff"/><path d="M731.3,204.89l-.71-.34a10.86,10.86,0,0,0,1.21-2.87,12.56,12.56,0,0,0,0-6.29,11.07,11.07,0,0,0-1.21-2.88l.71-.33a13.41,13.41,0,0,1,1.36,3,12,12,0,0,1,0,6.8A13.13,13.13,0,0,1,731.3,204.89Z" style="fill:#fff"/></svg>